<svg xmlns="http://www.w3.org/2000/svg" viewBox="0 0 836 470" width="836" height="470" shape-rendering="crispEdges" role="img" aria-labelledby="title desc">
<title id="title">Minimal AI workflow pixel tree</title>
<desc id="desc">SVG pixel-art illustration of a minimal branching AI workflow automation tree with roots, trunk, canopy, and square node junctions on a black background.</desc>
<rect width="836" height="470" fill="#050505"/>
<path d="M24 0V470" stroke="#2d2d2d" stroke-width="1" opacity="0.35"/>
<path d="M73 0V470" stroke="#2d2d2d" stroke-width="1" opacity="0.35"/>
<path d="M122 0V470" stroke="#2d2d2d" stroke-width="1" opacity="0.35"/>
<path d="M171 0V470" stroke="#2d2d2d" stroke-width="1" opacity="0.35"/>
<path d="M220 0V470" stroke="#2d2d2d" stroke-width="1" opacity="0.35"/>
<path d="M269 0V470" stroke="#2d2d2d" stroke-width="1" opacity="0.35"/>
<path d="M318 0V470" stroke="#2d2d2d" stroke-width="1" opacity="0.35"/>
<path d="M367 0V470" stroke="#2d2d2d" stroke-width="1" opacity="0.35"/>
<path d="M416 0V470" stroke="#2d2d2d" stroke-width="1" opacity="0.35"/>
<path d="M465 0V470" stroke="#2d2d2d" stroke-width="1" opacity="0.35"/>
<path d="M514 0V470" stroke="#2d2d2d" stroke-width="1" opacity="0.35"/>
<path d="M563 0V470" stroke="#2d2d2d" stroke-width="1" opacity="0.35"/>
<path d="M612 0V470" stroke="#2d2d2d" stroke-width="1" opacity="0.35"/>
<path d="M661 0V470" stroke="#2d2d2d" stroke-width="1" opacity="0.35"/>
<path d="M710 0V470" stroke="#2d2d2d" stroke-width="1" opacity="0.35"/>
<path d="M759 0V470" stroke="#2d2d2d" stroke-width="1" opacity="0.35"/>
<path d="M808 0V470" stroke="#2d2d2d" stroke-width="1" opacity="0.35"/>
<path fill="#492615" opacity="0.82" d="M403 34h1v1h-1zM414 38h1v2h-1zM400 41h1v1h-1zM410 41h1v1h-1zM417 43h1v1h-1zM421 42h1v3h-1zM428 44h1v1h-1zM400 44h1v2h-1zM407 45h1v1h-1zM412 47h1v1h-1zM400 49h1v1h-1zM409 48h1v2h-1zM421 48h1v2h-1zM428 49h1v1h-1zM414 53h1v1h-1zM417 53h1v1h-1zM428 53h1v1h-1zM415 54h1v1h-1zM400 55h1v1h-1zM411 54h1v2h-1zM417 55h1v1h-1zM421 52h1v4h-1zM414 56h1v1h-1zM399 59h1v1h-1zM414 59h1v1h-1zM406 63h1v1h-1zM420 63h1v1h-1zM535 66h2v1h-2zM543 66h1v1h-1zM553 66h1v1h-1zM528 66h1v2h-1zM532 66h1v2h-1zM535 67h1v1h-1zM539 67h1v1h-1zM547 66h1v2h-1zM550 67h1v1h-1zM553 67h2v1h-2zM282 69h2v1h-2zM280 70h1v1h-1zM293 69h1v2h-1zM304 69h1v2h-1zM529 72h1v1h-1zM558 71h1v2h-1zM412 73h4v1h-4zM551 73h1v1h-1zM303 74h1v1h-1zM552 74h1v1h-1zM303 75h2v1h-2zM414 75h1v1h-1zM413 76h1v1h-1zM415 76h1v1h-1zM529 77h1v1h-1zM275 78h1v1h-1zM282 77h1v3h-1zM551 79h1v1h-1zM558 79h1v1h-1zM275 80h1v1h-1zM414 80h1v1h-1zM304 80h1v2h-1zM308 81h1v1h-1zM310 81h1v1h-1zM413 81h1v1h-1zM523 81h3v1h-3zM415 82h1v1h-1zM558 82h1v1h-1zM309 83h2v1h-2zM528 82h1v2h-1zM303 84h1v1h-1zM524 84h1v1h-1zM275 85h1v1h-1zM304 85h1v1h-1zM309 85h2v1h-2zM282 83h1v4h-1zM297 86h1v1h-1zM308 86h1v1h-1zM538 86h1v1h-1zM308 87h3v1h-3zM275 88h1v1h-1zM289 88h2v1h-2zM294 88h4v1h-4zM308 88h1v1h-1zM516 87h1v2h-1zM519 88h2v1h-2zM528 88h1v1h-1zM558 87h1v2h-1zM303 89h2v1h-2zM510 89h2v1h-2zM275 90h1v1h-1zM528 90h1v1h-1zM282 89h1v3h-1zM558 90h1v2h-1zM283 92h3v1h-3zM288 92h4v1h-4zM294 92h3v1h-3zM313 92h3v1h-3zM535 92h4v1h-4zM541 92h4v1h-4zM548 92h4v1h-4zM500 93h2v1h-2zM507 93h1v1h-1zM514 92h1v2h-1zM528 93h1v1h-1zM303 93h2v2h-2zM329 94h1v1h-1zM413 94h1v1h-1zM415 94h1v1h-1zM506 94h1v1h-1zM528 94h2v1h-2zM558 93h1v2h-1zM327 97h3v1h-3zM339 97h2v1h-2zM283 98h1v1h-1zM293 98h1v1h-1zM304 98h1v1h-1zM332 98h1v1h-1zM528 98h2v1h-2zM532 98h2v1h-2zM553 98h2v1h-2zM558 98h1v1h-1zM275 98h1v2h-1zM279 99h1v1h-1zM282 99h1v1h-1zM286 99h1v1h-1zM296 99h1v1h-1zM299 99h2v1h-2zM327 98h1v2h-1zM339 99h1v1h-1zM497 98h2v2h-2zM329 100h1v1h-1zM410 97h1v4h-1zM469 101h1v1h-1zM485 102h1v1h-1zM338 103h2v1h-2zM418 102h1v2h-1zM493 103h2v1h-2zM334 103h1v2h-1zM338 104h1v1h-1zM340 104h1v1h-1zM410 104h1v1h-1zM490 103h1v2h-1zM494 104h1v1h-1zM543 103h1v2h-1zM357 107h2v1h-2zM485 107h1v1h-1zM490 108h1v1h-1zM359 110h1v1h-1zM482 108h1v3h-1zM475 113h1v1h-1zM344 114h1v1h-1zM340 115h1v1h-1zM358 115h1v1h-1zM438 115h1v1h-1zM441 115h1v1h-1zM443 115h17v1h-17zM464 114h1v2h-1zM469 115h1v1h-1zM343 116h1v1h-1zM484 116h1v1h-1zM473 116h1v3h-1zM356 119h4v1h-4zM365 119h2v1h-2zM421 119h1v1h-1zM462 119h2v1h-2zM470 119h3v1h-3zM434 120h1v1h-1zM364 120h1v2h-1zM418 119h1v3h-1zM464 120h1v2h-1zM467 121h1v1h-1zM475 121h1v1h-1zM309 115h1v9h-1zM465 124h1v1h-1zM525 124h1v1h-1zM528 124h4v1h-4zM534 124h1v1h-1zM537 124h1v1h-1zM543 108h1v17h-1zM296 124h1v2h-1zM300 124h3v2h-3zM415 125h1v1h-1zM434 124h1v2h-1zM535 125h3v1h-3zM413 126h2v1h-2zM421 125h1v2h-1zM466 126h1v1h-1zM434 128h1v1h-1zM368 129h2v1h-2zM392 129h3v1h-3zM408 129h2v1h-2zM414 129h4v1h-4zM443 129h1v1h-1zM457 129h1v1h-1zM413 130h2v1h-2zM392 131h1v1h-1zM398 131h1v1h-1zM407 131h1v1h-1zM413 131h1v1h-1zM434 130h1v2h-1zM445 130h1v2h-1zM460 130h1v2h-1zM415 132h1v1h-1zM457 132h1v1h-1zM459 132h1v1h-1zM397 135h1v1h-1zM408 135h1v1h-1zM416 135h2v1h-2zM428 135h1v1h-1zM449 135h2v1h-2zM452 135h1v1h-1zM590 135h1v1h-1zM604 135h2v1h-2zM610 135h1v1h-1zM614 135h2v1h-2zM368 135h1v2h-1zM394 136h1v1h-1zM398 136h1v1h-1zM411 136h1v1h-1zM420 136h1v1h-1zM424 136h1v1h-1zM434 136h1v1h-1zM460 135h1v2h-1zM591 136h1v1h-1zM594 136h1v1h-1zM597 136h1v1h-1zM614 136h1v1h-1zM373 137h2v1h-2zM381 137h1v1h-1zM408 137h1v1h-1zM416 136h1v2h-1zM452 137h1v1h-1zM457 137h1v1h-1zM442 138h2v1h-2zM615 139h1v1h-1zM447 140h1v1h-1zM377 141h2v1h-2zM388 141h1v1h-1zM443 141h1v1h-1zM600 141h2v1h-2zM379 142h1v1h-1zM433 142h2v1h-2zM602 142h1v1h-1zM614 142h1v1h-1zM219 143h1v1h-1zM231 143h1v1h-1zM373 143h2v1h-2zM386 142h1v2h-1zM390 141h1v3h-1zM434 143h1v1h-1zM441 142h1v2h-1zM455 141h1v3h-1zM438 144h3v1h-3zM443 144h3v1h-3zM604 145h1v1h-1zM615 145h1v1h-1zM387 146h3v1h-3zM438 146h4v1h-4zM605 146h1v1h-1zM215 147h1v1h-1zM235 147h1v1h-1zM390 147h1v1h-1zM392 147h1v1h-1zM427 147h1v1h-1zM595 147h1v1h-1zM603 147h2v1h-2zM233 147h1v2h-1zM432 148h1v1h-1zM214 149h1v1h-1zM234 149h1v1h-1zM309 126h1v24h-1zM392 149h1v1h-1zM396 147h1v3h-1zM412 147h1v3h-1zM441 148h1v2h-1zM584 149h1v1h-1zM614 149h2v1h-2zM577 149h1v2h-1zM587 149h1v2h-1zM592 149h1v2h-1zM210 152h2v1h-2zM238 152h1v1h-1zM594 152h1v1h-1zM596 152h1v1h-1zM603 152h1v1h-1zM432 153h1v1h-1zM614 153h2v1h-2zM227 151h1v4h-1zM270 154h1v1h-1zM401 152h1v3h-1zM565 154h1v1h-1zM569 154h1v1h-1zM574 154h1v1h-1zM587 154h1v1h-1zM595 154h1v1h-1zM597 154h1v1h-1zM604 154h1v1h-1zM224 155h3v1h-3zM273 155h1v1h-1zM398 152h1v4h-1zM400 155h2v1h-2zM403 155h3v1h-3zM414 155h1v1h-1zM524 155h1v1h-1zM561 155h1v1h-1zM566 155h1v1h-1zM584 154h1v2h-1zM595 155h2v1h-2zM603 155h1v1h-1zM605 155h1v1h-1zM559 154h1v3h-1zM614 156h2v1h-2zM225 157h3v1h-3zM245 157h2v1h-2zM277 154h1v4h-1zM309 151h1v7h-1zM403 157h1v1h-1zM409 157h2v1h-2zM414 157h1v1h-1zM522 157h1v1h-1zM599 156h1v2h-1zM602 157h1v1h-1zM211 158h1v1h-1zM222 157h1v2h-1zM250 158h1v1h-1zM252 158h1v1h-1zM255 158h2v1h-2zM259 158h2v1h-2zM264 158h1v1h-1zM278 158h4v1h-4zM310 158h4v1h-4zM318 158h11v1h-11zM418 158h1v1h-1zM546 158h3v1h-3zM600 158h2v1h-2zM223 159h1v1h-1zM230 159h1v1h-1zM244 159h1v1h-1zM300 157h1v3h-1zM410 158h1v2h-1zM539 159h1v1h-1zM276 160h8v1h-8zM414 160h1v1h-1zM421 160h1v1h-1zM544 160h8v1h-8zM614 160h1v1h-1zM285 162h1v1h-1zM301 162h2v1h-2zM408 162h1v1h-1zM413 162h3v1h-3zM419 162h2v1h-2zM524 162h1v1h-1zM281 163h2v1h-2zM410 163h1v1h-1zM591 163h1v1h-1zM594 163h1v1h-1zM211 164h1v1h-1zM238 164h2v1h-2zM281 164h1v1h-1zM300 163h1v2h-1zM421 163h1v2h-1zM423 164h1v1h-1zM525 163h1v2h-1zM590 164h1v1h-1zM601 164h1v1h-1zM607 164h2v1h-2zM611 164h1v1h-1zM614 164h1v1h-1zM285 165h1v1h-1zM288 165h1v1h-1zM539 165h1v1h-1zM411 166h1v1h-1zM417 167h1v1h-1zM531 167h1v1h-1zM534 167h1v1h-1zM215 167h1v2h-1zM235 168h1v1h-1zM287 168h1v1h-1zM295 168h2v1h-2zM514 167h1v2h-1zM407 168h1v2h-1zM421 167h1v3h-1zM524 169h1v1h-1zM292 170h1v1h-1zM329 170h1v1h-1zM411 168h1v3h-1zM420 170h1v1h-1zM231 171h1v1h-1zM439 171h1v1h-1zM219 172h1v1h-1zM413 172h2v1h-2zM419 172h1v1h-1zM225 173h1v1h-1zM228 173h2v1h-2zM298 173h1v1h-1zM329 172h1v2h-1zM353 173h36v1h-36zM407 172h1v2h-1zM446 173h1v1h-1zM450 173h1v1h-1zM452 173h7v1h-7zM460 173h15v1h-15zM481 173h3v1h-3zM390 171h1v4h-1zM419 174h1v1h-1zM421 172h1v3h-1zM439 175h1v1h-1zM301 176h2v1h-2zM421 176h1v1h-1zM329 177h1v1h-1zM415 177h1v1h-1zM309 178h1v1h-1zM407 176h1v3h-1zM413 178h3v1h-3zM525 177h1v2h-1zM348 173h1v7h-1zM392 178h1v2h-1zM408 179h3v1h-3zM502 176h1v4h-1zM305 180h2v1h-2zM441 178h1v3h-1zM501 180h1v1h-1zM307 181h1v2h-1zM413 182h3v1h-3zM418 182h1v1h-1zM521 181h1v2h-1zM305 183h1v1h-1zM309 183h3v1h-3zM348 183h3v1h-3zM441 182h1v2h-1zM314 184h4v1h-4zM319 184h3v1h-3zM348 184h1v1h-1zM408 184h3v1h-3zM483 183h2v2h-2zM507 184h3v1h-3zM512 184h3v1h-3zM322 185h1v1h-1zM327 184h1v3h-1zM418 185h1v2h-1zM423 185h1v2h-1zM425 186h1v1h-1zM499 184h1v3h-1zM347 187h4v1h-4zM410 185h1v3h-1zM482 187h4v1h-4zM511 185h1v3h-1zM514 187h1v1h-1zM321 189h1v1h-1zM325 189h8v1h-8zM413 189h3v1h-3zM503 189h2v1h-2zM418 190h1v1h-1zM312 191h1v1h-1zM335 191h2v1h-2zM315 192h1v1h-1zM322 190h1v3h-1zM348 192h1v1h-1zM350 192h1v1h-1zM372 190h1v3h-1zM418 192h1v1h-1zM512 192h1v1h-1zM514 192h1v1h-1zM521 192h1v1h-1zM309 193h1v1h-1zM312 193h1v1h-1zM516 193h1v1h-1zM413 194h3v1h-3zM339 195h1v1h-1zM341 195h1v1h-1zM372 195h1v1h-1zM419 195h1v1h-1zM498 192h1v4h-1zM296 194h1v3h-1zM225 197h63v1h-63zM289 197h3v1h-3zM343 197h1v1h-1zM355 195h1v3h-1zM478 196h1v2h-1zM480 196h1v2h-1zM531 197h1v1h-1zM536 197h54v1h-54zM591 197h10v1h-10zM296 198h1v1h-1zM336 198h2v1h-2zM339 198h3v1h-3zM352 198h2v1h-2zM373 198h1v1h-1zM412 198h4v1h-4zM424 198h2v1h-2zM483 198h2v1h-2zM488 198h1v1h-1zM490 198h1v1h-1zM339 200h2v1h-2zM348 200h2v1h-2zM352 200h1v1h-1zM419 200h2v1h-2zM460 200h2v1h-2zM490 200h1v1h-1zM492 200h2v1h-2zM340 201h1v1h-1zM349 201h1v2h-1zM359 200h1v3h-1zM418 201h1v2h-1zM474 202h1v1h-1zM482 200h1v3h-1zM343 203h2v1h-2zM352 203h3v1h-3zM357 203h2v1h-2zM373 203h3v1h-3zM377 203h1v1h-1zM392 184h1v20h-1zM414 202h1v2h-1zM463 201h1v3h-1zM474 203h2v1h-2zM490 203h1v1h-1zM494 203h1v1h-1zM296 201h1v4h-1zM428 204h1v1h-1zM441 189h1v16h-1zM467 204h1v1h-1zM469 204h1v1h-1zM352 205h1v1h-1zM418 205h1v1h-1zM433 205h1v1h-1zM435 205h1v1h-1zM438 205h1v1h-1zM357 205h1v2h-1zM392 206h1v1h-1zM424 206h1v1h-1zM429 206h1v1h-1zM457 205h1v2h-1zM352 207h1v1h-1zM358 207h1v1h-1zM363 205h1v3h-1zM414 207h2v1h-2zM420 207h1v1h-1zM460 207h1v1h-1zM470 205h1v3h-1zM359 209h3v1h-3zM375 209h1v1h-1zM377 209h1v1h-1zM393 209h1v1h-1zM414 209h1v1h-1zM441 209h1v1h-1zM455 209h1v1h-1zM383 209h1v2h-1zM391 210h1v1h-1zM400 210h1v1h-1zM428 210h2v1h-2zM434 210h1v1h-1zM440 210h2v1h-2zM457 209h1v2h-1zM359 210h1v2h-1zM371 209h1v3h-1zM377 211h1v1h-1zM379 209h1v3h-1zM392 211h1v1h-1zM399 211h1v1h-1zM405 210h1v2h-1zM424 211h2v1h-2zM460 210h1v2h-1zM470 209h1v3h-1zM475 211h1v1h-1zM353 212h1v1h-1zM360 212h1v1h-1zM368 212h2v1h-2zM373 212h3v1h-3zM452 212h3v1h-3zM459 212h1v1h-1zM464 212h1v1h-1zM468 212h2v1h-2zM472 212h4v1h-4zM443 214h3v1h-3zM452 214h1v1h-1zM478 214h1v1h-1zM346 215h3v1h-3zM352 214h1v2h-1zM377 215h1v1h-1zM457 215h1v1h-1zM347 216h2v1h-2zM368 216h1v1h-1zM378 216h1v1h-1zM380 214h1v3h-1zM392 215h1v2h-1zM403 215h3v2h-3zM441 215h1v2h-1zM455 214h1v3h-1zM458 216h2v1h-2zM478 216h1v1h-1zM296 208h1v10h-1zM344 217h1v1h-1zM348 217h1v1h-1zM383 217h1v1h-1zM385 215h1v3h-1zM443 217h3v1h-3zM448 217h1v1h-1zM383 219h1v1h-1zM388 219h1v1h-1zM390 219h1v1h-1zM438 219h1v1h-1zM444 219h1v1h-1zM449 219h2v1h-2zM412 219h1v4h-1zM446 220h1v3h-1zM452 220h1v3h-1zM429 225h2v1h-2zM536 225h1v1h-1zM296 220h1v7h-1zM414 226h1v1h-1zM537 226h1v1h-1zM392 225h1v3h-1zM407 225h1v3h-1zM412 225h1v3h-1zM430 226h1v2h-1zM432 225h1v3h-1zM436 227h1v1h-1zM446 227h1v1h-1zM539 227h1v1h-1zM290 228h1v1h-1zM393 228h3v1h-3zM413 228h1v1h-1zM415 228h1v1h-1zM418 228h1v1h-1zM420 228h1v1h-1zM434 228h1v1h-1zM438 228h1v1h-1zM540 228h1v1h-1zM308 230h1v1h-1zM394 230h1v1h-1zM403 230h3v1h-3zM412 230h4v1h-4zM423 230h1v1h-1zM427 230h1v1h-1zM438 230h3v1h-3zM519 230h1v1h-1zM346 220h1v12h-1zM483 220h1v12h-1zM524 231h2v1h-2zM531 231h1v1h-1zM545 231h1v1h-1zM291 232h2v1h-2zM295 232h3v1h-3zM300 231h3v2h-3zM305 232h2v1h-2zM314 232h33v1h-33zM427 232h1v1h-1zM483 232h31v1h-31zM522 232h5v1h-5zM529 232h4v1h-4zM392 231h1v3h-1zM432 231h1v3h-1zM515 233h1v1h-1zM542 231h1v3h-1zM278 231h1v4h-1zM308 234h1v1h-1zM312 231h1v4h-1zM518 234h2v1h-2zM545 234h1v1h-1zM546 235h4v1h-4zM277 236h6v1h-6zM432 236h1v1h-1zM544 236h1v1h-1zM546 236h5v1h-5zM427 237h1v1h-1zM554 237h1v1h-1zM397 236h1v3h-1zM401 236h1v3h-1zM435 236h1v3h-1zM555 238h1v1h-1zM272 239h1v1h-1zM398 239h3v1h-3zM412 239h1v1h-1zM423 239h3v1h-3zM427 239h4v1h-4zM432 239h3v1h-3zM553 239h1v1h-1zM557 240h3v1h-3zM399 241h2v1h-2zM403 241h2v1h-2zM423 241h3v1h-3zM428 241h2v1h-2zM401 242h1v1h-1zM267 243h2v1h-2zM427 242h1v2h-1zM210 244h1v1h-1zM215 244h1v1h-1zM221 244h1v1h-1zM238 244h1v1h-1zM273 243h2v2h-2zM401 244h1v1h-1zM558 244h1v1h-1zM562 244h1v1h-1zM595 244h1v1h-1zM598 244h1v1h-1zM601 244h1v1h-1zM615 244h1v1h-1zM214 245h1v1h-1zM224 245h1v1h-1zM234 245h1v1h-1zM267 245h2v1h-2zM425 245h1v1h-1zM564 245h1v1h-1zM403 247h2v1h-2zM423 247h1v1h-1zM565 248h1v1h-1zM407 237h1v13h-1zM562 248h1v2h-1zM266 250h3v1h-3zM408 250h2v1h-2zM415 250h6v1h-6zM563 250h1v1h-1zM565 250h1v1h-1zM210 251h1v1h-1zM232 251h1v1h-1zM238 251h1v1h-1zM571 251h1v1h-1zM620 251h1v1h-1zM211 252h1v1h-1zM230 252h1v1h-1zM424 252h1v1h-1zM592 252h1v1h-1zM229 253h1v1h-1zM393 253h2v1h-2zM575 253h1v1h-1zM597 251h1v3h-1zM210 254h1v1h-1zM238 254h1v1h-1zM258 254h2v1h-2zM394 254h1v1h-1zM574 254h1v1h-1zM614 251h1v4h-1zM227 256h1v1h-1zM225 257h1v1h-1zM229 257h1v1h-1zM210 258h1v1h-1zM238 258h1v1h-1zM242 258h1v1h-1zM246 258h2v1h-2zM259 258h1v1h-1zM385 258h1v1h-1zM393 258h1v1h-1zM433 258h1v1h-1zM570 258h1v1h-1zM582 258h1v1h-1zM605 258h1v1h-1zM246 259h1v1h-1zM254 259h1v1h-1zM258 259h1v1h-1zM584 257h1v3h-1zM592 259h1v1h-1zM606 259h1v1h-1zM244 257h1v4h-1zM394 260h1v1h-1zM570 260h1v1h-1zM219 259h1v3h-1zM222 261h2v1h-2zM238 262h1v1h-1zM413 262h3v1h-3zM420 262h1v1h-1zM219 263h1v1h-1zM223 263h1v1h-1zM407 263h1v1h-1zM259 264h1v1h-1zM592 264h1v1h-1zM220 265h3v1h-3zM238 265h1v1h-1zM570 265h1v1h-1zM398 266h1v1h-1zM408 266h3v1h-3zM413 266h1v1h-1zM415 266h1v1h-1zM418 266h3v1h-3zM592 267h1v1h-1zM238 268h1v1h-1zM408 268h2v1h-2zM419 268h2v1h-2zM423 268h3v1h-3zM210 271h1v1h-1zM220 271h2v1h-2zM230 271h1v1h-1zM598 271h1v1h-1zM615 271h1v1h-1zM210 272h2v1h-2zM217 271h2v2h-2zM220 272h1v1h-1zM228 271h1v2h-1zM230 272h2v1h-2zM234 271h1v2h-1zM237 271h1v2h-1zM394 271h1v2h-1zM414 272h1v1h-1zM434 271h1v2h-1zM596 272h1v1h-1zM598 272h2v1h-2zM605 271h2v2h-2zM609 271h2v2h-2zM612 271h2v2h-2zM616 272h1v1h-1zM619 271h2v2h-2zM414 277h1v1h-1zM394 277h1v2h-1zM434 278h1v1h-1zM414 282h1v1h-1zM394 283h1v2h-1zM434 284h1v1h-1zM408 287h2v1h-2zM415 287h1v1h-1zM418 287h3v1h-3zM423 287h3v1h-3zM394 288h1v2h-1zM434 289h1v1h-1zM396 293h1v1h-1zM398 293h1v1h-1zM415 293h1v1h-1zM416 294h1v1h-1zM416 296h1v1h-1zM418 296h1v1h-1zM415 297h1v1h-1zM408 298h1v1h-1zM410 298h1v1h-1zM413 297h1v2h-1zM418 298h2v1h-2zM412 299h1v1h-1zM416 300h1v1h-1zM391 301h7v1h-7zM403 301h1v1h-1zM410 301h1v1h-1zM412 301h4v1h-4zM434 301h4v1h-4zM420 303h1v1h-1zM423 303h1v1h-1zM425 303h1v1h-1zM393 305h1v1h-1zM408 307h1v1h-1zM413 307h1v1h-1zM415 307h1v1h-1zM394 309h2v1h-2zM403 309h3v1h-3zM414 309h1v1h-1zM418 309h3v1h-3zM423 309h2v1h-2zM393 310h1v3h-1zM435 309h1v4h-1zM394 315h1v1h-1zM399 317h2v1h-2zM414 317h1v1h-1zM394 318h1v1h-1zM427 318h1v1h-1zM434 318h1v1h-1zM413 320h1v1h-1zM403 321h1v1h-1zM398 323h3v1h-3zM418 323h3v1h-3zM428 323h2v1h-2zM395 324h1v1h-1zM411 324h1v1h-1zM414 324h1v1h-1zM394 325h1v1h-1zM403 324h1v2h-1zM409 325h1v1h-1zM414 325h2v1h-2zM434 325h1v1h-1zM398 326h3v1h-3zM398 328h1v1h-1zM404 328h2v1h-2zM410 328h2v1h-2zM433 328h3v1h-3zM408 329h1v1h-1zM415 329h1v1h-1zM430 329h1v1h-1zM399 330h1v1h-1zM412 329h1v2h-1zM429 330h2v1h-2zM423 331h3v1h-3zM436 330h1v2h-1zM403 333h2v1h-2zM410 333h2v1h-2zM429 333h1v1h-1zM439 333h2v1h-2zM434 334h1v1h-1zM386 335h1v1h-1zM392 335h1v1h-1zM399 334h1v2h-1zM425 335h1v1h-1zM385 336h1v1h-1zM405 334h1v3h-1zM410 336h2v1h-2zM418 336h3v1h-3zM443 336h1v1h-1zM373 338h1v1h-1zM398 338h4v1h-4zM428 338h1v1h-1zM448 338h3v1h-3zM459 338h1v1h-1zM395 339h1v1h-1zM435 339h1v1h-1zM471 339h1v1h-1zM357 340h1v1h-1zM359 340h1v1h-1zM372 339h1v2h-1zM377 339h1v2h-1zM381 339h1v2h-1zM394 340h1v1h-1zM418 340h1v1h-1zM427 339h1v2h-1zM460 339h1v2h-1zM466 339h1v2h-1zM472 340h1v1h-1zM361 341h1v1h-1zM363 339h1v3h-1zM366 339h1v3h-1zM368 341h1v1h-1zM378 341h1v1h-1zM398 341h1v1h-1zM401 339h1v3h-1zM410 341h3v1h-3zM428 341h3v1h-3zM448 341h3v1h-3zM457 341h1v1h-1zM462 341h1v1h-1zM464 341h1v1h-1zM468 341h2v1h-2zM341 343h1v1h-1zM349 343h5v1h-5zM438 343h2v1h-2zM476 343h4v1h-4zM390 344h1v1h-1zM418 343h1v2h-1zM421 343h1v2h-1zM484 344h2v1h-2zM388 348h1v1h-1zM446 348h1v1h-1zM449 348h2v1h-2zM318 349h1v1h-1zM441 349h1v1h-1zM448 349h1v1h-1zM496 349h1v1h-1zM510 349h2v1h-2zM339 350h2v1h-2zM382 350h1v1h-1zM384 348h1v3h-1zM388 350h1v1h-1zM446 350h1v1h-1zM450 350h1v1h-1zM310 348h1v4h-1zM363 352h1v1h-1zM368 352h2v1h-2zM377 352h1v1h-1zM403 352h1v1h-1zM424 352h1v1h-1zM428 352h2v1h-2zM513 347h1v6h-1zM524 352h3v1h-3zM530 352h1v1h-1zM296 353h1v1h-1zM310 353h6v1h-6zM464 353h1v1h-1zM514 353h6v1h-6zM524 353h1v1h-1zM366 353h1v2h-1zM381 354h1v1h-1zM423 354h1v1h-1zM425 354h1v1h-1zM450 354h1v1h-1zM463 354h1v1h-1zM471 352h1v3h-1zM373 355h3v1h-3zM453 355h1v1h-1zM457 355h4v1h-4zM348 356h1v1h-1zM541 356h1v1h-1zM296 357h1v1h-1zM338 357h1v1h-1zM340 357h1v1h-1zM345 357h1v1h-1zM353 357h1v1h-1zM283 358h2v1h-2zM342 358h1v1h-1zM532 357h1v2h-1zM551 357h1v2h-1zM281 359h1v1h-1zM339 359h1v1h-1zM345 359h1v1h-1zM352 359h1v1h-1zM354 358h1v2h-1zM400 359h1v1h-1zM477 357h1v3h-1zM485 358h1v2h-1zM530 359h3v1h-3zM542 357h1v3h-1zM548 359h1v1h-1zM274 361h2v1h-2zM488 361h1v1h-1zM490 361h1v1h-1zM493 361h3v1h-3zM498 361h3v1h-3zM560 361h1v1h-1zM343 362h1v1h-1zM401 362h1v1h-1zM560 362h3v1h-3zM264 363h1v1h-1zM281 362h1v2h-1zM325 363h1v1h-1zM328 363h2v1h-2zM334 361h1v3h-1zM338 362h1v2h-1zM512 363h1v1h-1zM548 362h1v2h-1zM555 363h1v1h-1zM560 363h1v1h-1zM565 363h1v1h-1zM268 364h2v1h-2zM273 364h3v1h-3zM279 364h2v1h-2zM320 364h3v1h-3zM339 364h2v1h-2zM432 362h1v3h-1zM499 364h1v1h-1zM501 364h1v1h-1zM549 364h2v1h-2zM557 364h3v1h-3zM573 362h1v3h-1zM388 366h3v1h-3zM441 366h1v1h-1zM569 362h1v5h-1zM261 361h1v7h-1zM324 365h1v3h-1zM579 367h1v1h-1zM392 366h1v3h-1zM396 367h1v2h-1zM578 368h1v1h-1zM257 369h1v1h-1zM505 364h1v6h-1zM572 368h1v2h-1zM392 371h1v1h-1zM445 365h1v7h-1zM320 372h2v1h-2zM582 372h1v1h-1zM250 372h1v2h-1zM387 373h1v1h-1zM444 373h1v1h-1zM574 372h1v2h-1zM320 374h2v1h-2zM511 374h1v1h-1zM571 374h1v1h-1zM255 376h3v1h-3zM318 376h4v1h-4zM443 376h1v1h-1zM445 376h1v1h-1zM510 376h3v1h-3zM571 376h2v1h-2zM313 377h1v1h-1zM252 378h1v1h-1zM258 377h1v2h-1zM574 377h1v2h-1zM313 379h1v1h-1zM446 377h1v3h-1zM513 379h1v1h-1zM517 378h1v2h-1zM576 377h1v3h-1zM579 377h1v3h-1zM510 380h3v1h-3zM381 381h3v1h-3zM514 381h4v1h-4zM447 382h1v3h-1zM581 382h1v3h-1zM517 385h1v1h-1zM245 386h1v1h-1zM244 387h1v2h-1zM315 388h1v1h-1zM381 388h1v1h-1zM448 387h1v2h-1zM515 388h1v1h-1zM582 388h1v1h-1zM243 395h1v1h-1zM312 393h1v3h-1zM585 395h1v1h-1zM384 392h1v5h-1zM518 392h1v5h-1zM246 399h1v1h-1zM314 399h2v1h-2zM381 399h3v1h-3zM448 399h3v1h-3zM515 399h3v1h-3zM582 399h3v1h-3zM313 401h1v1h-1zM448 402h3v1h-3zM582 402h2v1h-2zM313 404h1v1h-1zM517 404h1v3h-1zM313 409h1v2h-1zM517 409h1v2h-1zM244 411h2v1h-2zM314 411h1v1h-1zM383 411h1v1h-1zM450 411h1v1h-1zM584 411h1v1h-1zM249 416h1v1h-1zM250 417h1v1h-1zM308 417h1v1h-1zM444 417h1v1h-1zM515 417h1v1h-1zM519 417h1v1h-1zM306 418h1v1h-1zM510 418h1v1h-1zM513 418h1v1h-1zM518 418h1v1h-1zM573 418h1v1h-1zM391 419h1v1h-1zM448 419h1v1h-1zM454 419h1v1h-1zM456 419h1v1h-1zM511 419h2v1h-2zM519 419h2v1h-2zM575 419h16v1h-16zM249 419h1v2h-1zM253 420h1v1h-1zM442 420h2v1h-2zM445 419h1v2h-1zM449 420h1v1h-1zM451 419h1v2h-1zM455 420h1v1h-1zM509 420h1v1h-1zM249 421h3v1h-3zM254 421h1v1h-1zM321 421h1v1h-1zM375 421h1v1h-1zM575 421h3v1h-3zM579 421h12v1h-12zM242 421h4v2h-4zM323 419h1v4h-1zM387 422h1v1h-1zM512 422h1v1h-1zM308 423h1v1h-1zM375 423h1v1h-1zM510 423h1v1h-1zM516 423h1v1h-1zM521 423h1v1h-1zM379 424h1v1h-1zM387 424h1v1h-1zM444 424h1v1h-1zM447 424h1v1h-1zM383 425h1v1h-1zM442 425h1v1h-1zM513 425h2v1h-2zM245 426h1v1h-1zM247 426h1v1h-1zM249 426h1v1h-1zM307 425h1v2h-1zM321 426h1v1h-1zM448 425h1v2h-1zM451 425h1v2h-1zM456 425h1v2h-1zM579 426h1v1h-1zM241 427h1v1h-1zM244 427h1v1h-1zM248 427h1v1h-1zM383 427h1v1h-1zM386 427h1v1h-1zM441 427h1v1h-1zM447 427h1v1h-1zM457 427h1v1h-1zM377 428h1v1h-1zM386 428h2v1h-2zM309 429h1v1h-1zM319 429h1v1h-1zM578 429h1v1h-1zM582 429h3v1h-3zM311 430h1v1h-1zM318 430h1v1h-1zM375 430h1v1h-1zM447 430h1v1h-1zM442 431h2v1h-2zM449 431h1v1h-1zM455 431h1v1h-1zM522 431h1v1h-1zM307 431h1v2h-1zM372 420h1v13h-1zM448 432h1v1h-1zM451 432h1v1h-1zM454 432h1v1h-1zM456 432h1v1h-1zM511 432h1v1h-1zM447 433h1v1h-1zM453 433h1v1h-1zM573 433h1v1h-1zM592 418h1v16h-1zM575 434h6v1h-6zM582 434h10v1h-10zM310 435h1v1h-1zM515 436h2v1h-2z"/>
<path fill="#97461a" d="M420 34h2v1h-2zM428 41h1v1h-1zM400 42h1v1h-1zM417 42h1v1h-1zM415 42h1v2h-1zM428 45h1v1h-1zM413 47h2v1h-2zM400 48h1v1h-1zM428 48h1v1h-1zM407 48h1v2h-1zM419 49h1v1h-1zM412 48h1v3h-1zM416 47h1v4h-1zM400 52h1v1h-1zM410 53h1v1h-1zM418 53h1v1h-1zM413 54h1v1h-1zM417 54h1v1h-1zM414 55h1v1h-1zM428 55h1v1h-1zM414 57h1v2h-1zM421 63h1v1h-1zM539 66h1v1h-1zM550 66h1v1h-1zM554 66h1v1h-1zM558 66h1v1h-1zM536 67h1v1h-1zM279 69h1v1h-1zM296 69h1v1h-1zM275 69h1v2h-1zM282 70h2v1h-2zM286 69h1v2h-1zM299 69h2v2h-2zM416 69h1v4h-1zM528 72h1v1h-1zM529 73h1v1h-1zM275 74h1v1h-1zM304 74h1v1h-1zM548 74h3v1h-3zM553 74h1v1h-1zM551 75h1v1h-1zM554 75h1v1h-1zM304 76h1v1h-1zM529 76h1v1h-1zM548 75h1v2h-1zM552 76h2v1h-2zM558 76h1v1h-1zM275 77h1v1h-1zM283 77h3v1h-3zM288 77h4v1h-4zM528 77h1v1h-1zM551 77h1v1h-1zM547 78h2v1h-2zM548 79h1v1h-1zM282 80h1v1h-1zM309 81h1v1h-1zM414 81h1v1h-1zM541 81h3v1h-3zM308 82h1v1h-1zM310 82h1v1h-1zM413 82h1v1h-1zM551 81h1v3h-1zM275 84h1v1h-1zM523 84h1v1h-1zM297 83h1v3h-1zM414 85h1v1h-1zM523 85h3v1h-3zM283 86h3v1h-3zM289 86h3v1h-3zM294 86h3v1h-3zM310 86h1v1h-1zM535 86h3v1h-3zM541 86h3v1h-3zM548 86h4v1h-4zM309 88h2v1h-2zM319 87h1v2h-1zM413 87h2v2h-2zM524 88h1v1h-1zM275 89h1v1h-1zM549 89h1v1h-1zM551 89h1v1h-1zM288 89h1v3h-1zM297 89h1v3h-1zM538 87h1v5h-1zM413 92h2v1h-2zM515 92h2v1h-2zM275 93h1v1h-1zM329 92h1v2h-1zM505 93h1v1h-1zM313 93h1v2h-1zM327 94h2v1h-2zM514 94h1v1h-1zM279 98h1v1h-1zM282 98h1v1h-1zM286 98h1v1h-1zM296 98h1v1h-1zM299 98h2v1h-2zM338 98h1v1h-1zM321 98h2v2h-2zM328 98h2v2h-2zM340 99h1v1h-1zM471 103h1v1h-1zM497 103h3v1h-3zM339 104h1v1h-1zM356 101h1v4h-1zM359 101h1v4h-1zM469 102h1v3h-1zM493 104h1v1h-1zM497 104h1v1h-1zM499 104h1v1h-1zM343 105h3v1h-3zM483 105h3v1h-3zM414 107h1v1h-1zM359 108h1v2h-1zM472 108h1v2h-1zM488 108h2v2h-2zM357 110h2v1h-2zM413 110h1v1h-1zM415 110h1v1h-1zM470 110h3v1h-3zM432 113h2v1h-2zM348 113h1v2h-1zM414 114h1v1h-1zM480 113h1v2h-1zM310 115h30v1h-30zM439 115h2v1h-2zM473 115h1v1h-1zM483 115h1v1h-1zM488 115h36v1h-36zM432 117h3v1h-3zM413 118h1v1h-1zM419 119h1v1h-1zM469 119h1v1h-1zM475 114h1v7h-1zM356 121h3v1h-3zM366 121h1v1h-1zM413 121h3v1h-3zM421 120h1v2h-1zM462 120h1v2h-1zM309 124h2v1h-2zM415 124h1v1h-1zM421 124h1v1h-1zM535 124h2v1h-2zM310 125h1v1h-1zM413 124h1v2h-1zM415 126h1v1h-1zM469 124h1v3h-1zM364 129h3v1h-3zM370 129h1v1h-1zM377 129h3v1h-3zM444 129h1v1h-1zM458 129h2v1h-2zM392 130h1v1h-1zM394 130h1v1h-1zM398 130h1v1h-1zM408 130h1v1h-1zM366 130h1v2h-1zM368 130h1v2h-1zM378 131h1v1h-1zM393 131h2v1h-2zM397 131h1v1h-1zM408 131h2v1h-2zM453 130h1v2h-1zM457 130h1v2h-1zM416 132h2v1h-2zM458 132h1v1h-1zM414 134h1v1h-1zM373 135h2v1h-2zM442 135h2v1h-2zM455 135h1v1h-1zM591 135h1v1h-1zM601 135h1v1h-1zM607 135h2v1h-2zM611 135h1v1h-1zM373 136h1v1h-1zM393 136h1v1h-1zM408 136h1v1h-1zM410 136h1v1h-1zM428 136h1v1h-1zM454 136h2v1h-2zM457 135h1v2h-1zM587 135h1v2h-1zM369 137h2v1h-2zM377 135h1v3h-1zM455 137h1v1h-1zM458 137h2v1h-2zM587 139h1v1h-1zM614 139h1v1h-1zM381 140h4v1h-4zM414 140h1v1h-1zM387 141h1v1h-1zM389 141h1v1h-1zM438 141h3v1h-3zM444 141h2v1h-2zM453 141h2v1h-2zM221 142h1v1h-1zM228 142h1v1h-1zM373 142h1v1h-1zM377 142h1v1h-1zM412 142h1v1h-1zM587 142h1v1h-1zM615 142h1v1h-1zM377 143h2v1h-2zM394 142h2v2h-2zM411 143h1v1h-1zM438 142h1v2h-1zM453 143h2v1h-2zM594 144h2v1h-2zM606 144h1v1h-1zM587 145h1v1h-1zM603 145h1v1h-1zM413 146h3v1h-3zM598 145h1v2h-1zM234 147h1v1h-1zM429 147h2v1h-2zM432 147h1v1h-1zM441 147h1v1h-1zM596 147h1v1h-1zM605 147h1v1h-1zM215 148h1v1h-1zM387 147h1v2h-1zM594 148h1v1h-1zM235 149h1v1h-1zM401 147h1v3h-1zM427 148h1v2h-1zM430 148h1v2h-1zM432 149h1v1h-1zM582 150h1v1h-1zM609 149h1v2h-1zM596 150h1v2h-1zM399 152h1v1h-1zM403 152h3v1h-3zM430 152h1v1h-1zM433 152h2v1h-2zM604 152h1v1h-1zM277 153h5v1h-5zM414 153h1v1h-1zM545 153h5v1h-5zM605 153h1v1h-1zM239 154h1v1h-1zM271 154h1v1h-1zM403 153h1v2h-1zM425 153h1v2h-1zM524 116h1v39h-1zM570 154h1v1h-1zM603 153h1v2h-1zM270 155h1v1h-1zM399 155h1v1h-1zM413 155h1v1h-1zM415 155h1v1h-1zM423 155h3v1h-3zM427 152h1v4h-1zM430 154h1v2h-1zM557 154h1v2h-1zM565 155h1v1h-1zM569 155h1v1h-1zM594 155h1v1h-1zM598 153h1v3h-1zM606 155h2v1h-2zM587 156h1v1h-1zM595 156h1v1h-1zM602 156h1v1h-1zM223 157h2v1h-2zM301 157h2v1h-2zM404 157h2v1h-2zM408 157h1v1h-1zM413 157h1v1h-1zM415 157h1v1h-1zM423 157h3v1h-3zM550 154h1v4h-1zM210 158h1v1h-1zM223 158h1v1h-1zM227 158h1v1h-1zM246 158h1v1h-1zM277 158h1v1h-1zM282 154h1v5h-1zM314 158h4v1h-4zM420 158h1v1h-1zM545 154h1v5h-1zM549 158h1v1h-1zM252 159h1v1h-1zM301 159h2v1h-2zM414 159h1v1h-1zM540 158h1v2h-1zM218 160h2v1h-2zM221 160h1v1h-1zM231 160h2v1h-2zM403 160h3v1h-3zM408 160h2v1h-2zM413 160h1v1h-1zM415 160h1v1h-1zM418 159h1v2h-1zM587 159h1v2h-1zM239 163h1v1h-1zM417 163h1v1h-1zM535 163h2v1h-2zM232 161h1v4h-1zM282 164h1v1h-1zM288 162h1v3h-1zM535 164h1v1h-1zM587 163h1v2h-1zM591 164h1v1h-1zM594 164h1v1h-1zM597 163h1v2h-1zM286 165h2v1h-2zM412 165h1v1h-1zM416 165h1v1h-1zM540 165h2v1h-2zM417 166h1v1h-1zM214 167h1v1h-1zM411 167h1v1h-1zM532 167h1v1h-1zM419 167h1v2h-1zM515 168h3v1h-3zM524 167h1v2h-1zM329 158h1v12h-1zM517 169h1v1h-1zM391 171h4v1h-4zM231 172h1v1h-1zM394 172h1v1h-1zM221 173h1v1h-1zM392 172h1v2h-1zM447 173h3v1h-3zM459 173h1v1h-1zM300 173h1v2h-1zM408 174h1v1h-1zM413 174h1v1h-1zM415 173h1v2h-1zM420 174h1v1h-1zM439 172h1v3h-1zM523 172h1v3h-1zM531 172h1v3h-1zM391 175h4v1h-4zM413 175h3v1h-3zM440 175h4v1h-4zM305 176h2v1h-2zM309 176h2v1h-2zM330 176h1v1h-1zM409 176h2v1h-2zM418 176h3v1h-3zM524 176h1v1h-1zM328 177h1v1h-1zM413 177h2v1h-2zM418 177h1v1h-1zM302 177h1v2h-1zM328 178h2v1h-2zM410 177h1v2h-1zM421 177h1v2h-1zM328 179h3v1h-3zM499 177h1v3h-1zM501 179h1v1h-1zM329 180h1v1h-1zM413 180h1v1h-1zM415 180h1v1h-1zM418 180h2v1h-2zM500 180h1v1h-1zM519 180h2v1h-2zM499 181h1v1h-1zM314 180h2v3h-2zM419 181h1v2h-1zM511 180h1v3h-1zM513 180h1v3h-1zM517 180h1v3h-1zM306 183h1v1h-1zM328 184h2v1h-2zM349 184h2v1h-2zM500 184h2v1h-2zM350 185h1v1h-1zM425 185h1v1h-1zM348 186h3v1h-3zM482 184h1v3h-1zM514 185h1v2h-1zM317 185h1v3h-1zM319 187h1v1h-1zM322 186h1v2h-1zM408 187h2v1h-2zM413 187h3v1h-3zM441 184h1v5h-1zM319 190h1v2h-1zM350 190h1v2h-1zM418 191h1v1h-1zM296 192h11v1h-11zM309 191h1v2h-1zM312 192h1v1h-1zM316 192h1v1h-1zM319 192h3v1h-3zM349 192h1v1h-1zM410 190h1v3h-1zM412 190h1v3h-1zM425 191h1v2h-1zM483 192h2v1h-2zM493 192h1v1h-1zM507 192h3v1h-3zM513 192h1v1h-1zM516 191h1v2h-1zM519 191h1v2h-1zM522 192h11v1h-11zM310 193h2v1h-2zM337 192h1v2h-1zM517 193h2v1h-2zM326 193h1v3h-1zM340 195h1v1h-1zM352 195h1v1h-1zM375 195h1v1h-1zM482 195h2v1h-2zM492 195h2v1h-2zM532 193h1v4h-1zM295 197h1v1h-1zM324 190h1v8h-1zM337 196h1v2h-1zM344 196h2v2h-2zM412 195h1v3h-1zM418 196h1v2h-1zM420 196h1v2h-1zM479 196h1v2h-1zM482 196h1v2h-1zM490 196h1v2h-1zM354 198h1v1h-1zM335 200h3v1h-3zM343 200h3v1h-3zM357 200h2v1h-2zM373 200h3v1h-3zM413 200h3v1h-3zM462 200h1v1h-1zM479 200h2v1h-2zM483 200h3v1h-3zM488 200h2v1h-2zM343 201h1v2h-1zM348 201h1v2h-1zM352 201h1v2h-1zM375 201h1v2h-1zM377 201h1v2h-1zM460 201h1v2h-1zM475 202h1v1h-1zM485 201h1v2h-1zM490 201h1v2h-1zM494 201h1v2h-1zM335 203h3v1h-3zM345 203h1v1h-1zM378 203h2v1h-2zM413 203h1v1h-1zM415 202h1v2h-1zM460 203h3v1h-3zM478 203h3v1h-3zM483 203h3v1h-3zM488 203h2v1h-2zM492 203h2v1h-2zM413 205h3v1h-3zM419 205h2v1h-2zM429 205h1v1h-1zM434 205h1v1h-1zM479 205h2v1h-2zM355 206h1v1h-1zM418 206h1v1h-1zM428 206h1v1h-1zM441 205h1v2h-1zM460 205h1v2h-1zM359 207h1v1h-1zM377 207h1v1h-1zM458 207h2v1h-2zM468 207h2v1h-2zM480 206h1v2h-1zM363 209h1v1h-1zM368 209h2v1h-2zM373 209h2v1h-2zM378 209h1v1h-1zM381 209h2v1h-2zM392 209h1v1h-1zM418 209h3v1h-3zM452 209h3v1h-3zM458 209h2v1h-2zM462 209h3v1h-3zM467 209h3v1h-3zM368 210h1v1h-1zM377 210h1v1h-1zM398 210h2v1h-2zM403 210h2v1h-2zM418 210h1v1h-1zM355 210h1v2h-1zM375 210h1v2h-1zM383 211h1v1h-1zM413 211h3v1h-3zM418 211h3v1h-3zM452 210h1v2h-1zM455 210h1v2h-1zM457 211h1v1h-1zM354 212h1v1h-1zM361 212h1v1h-1zM363 212h1v1h-1zM370 212h1v1h-1zM345 214h3v1h-3zM368 214h3v1h-3zM386 214h3v1h-3zM423 214h1v1h-1zM425 214h1v1h-1zM453 214h2v1h-2zM345 215h1v1h-1zM350 215h1v1h-1zM368 215h1v1h-1zM370 215h1v1h-1zM378 215h1v1h-1zM448 214h2v2h-2zM458 215h2v1h-2zM345 216h2v1h-2zM369 216h2v1h-2zM375 214h1v3h-1zM409 215h1v2h-1zM418 214h1v3h-1zM440 215h1v2h-1zM443 215h1v2h-1zM345 217h3v1h-3zM381 217h2v1h-2zM386 217h3v1h-3zM482 217h3v1h-3zM386 219h2v1h-2zM389 219h1v1h-1zM413 219h2v1h-2zM418 219h3v1h-3zM443 219h1v1h-1zM445 219h1v1h-1zM448 219h1v1h-1zM386 220h1v2h-1zM414 220h1v2h-1zM381 222h3v1h-3zM392 220h1v3h-1zM408 222h2v1h-2zM434 220h2v3h-2zM441 220h1v3h-1zM449 222h1v1h-1zM455 220h1v3h-1zM291 225h1v1h-1zM399 225h2v1h-2zM408 225h1v1h-1zM428 225h1v1h-1zM532 198h1v28h-1zM293 226h3v1h-3zM532 226h2v1h-2zM535 226h1v1h-1zM539 226h1v1h-1zM291 227h1v1h-1zM387 226h1v2h-1zM390 225h1v3h-1zM414 227h1v1h-1zM441 225h1v3h-1zM443 225h1v3h-1zM536 227h1v1h-1zM540 227h1v1h-1zM398 228h3v1h-3zM433 228h1v1h-1zM435 228h1v1h-1zM286 230h3v1h-3zM309 230h3v1h-3zM393 230h1v1h-1zM395 230h1v1h-1zM398 230h3v1h-3zM428 230h3v1h-3zM433 230h3v1h-3zM516 230h3v1h-3zM539 230h3v1h-3zM427 231h1v1h-1zM544 230h1v2h-1zM409 232h1v1h-1zM412 231h1v2h-1zM418 232h1v1h-1zM440 232h1v1h-1zM535 232h2v1h-2zM308 231h1v3h-1zM412 233h3v1h-3zM418 233h3v1h-3zM427 233h1v1h-1zM519 231h1v3h-1zM544 232h2v2h-2zM277 230h1v5h-1zM309 234h3v1h-3zM516 234h2v1h-2zM544 234h1v1h-1zM550 234h1v1h-1zM277 235h6v1h-6zM544 235h2v1h-2zM283 236h1v1h-1zM408 236h4v1h-4zM427 236h1v1h-1zM545 236h1v1h-1zM553 237h1v1h-1zM272 237h1v2h-1zM423 236h1v3h-1zM427 238h1v1h-1zM432 237h1v2h-1zM273 239h2v1h-2zM411 239h1v1h-1zM413 239h5v1h-5zM211 244h1v1h-1zM214 244h1v1h-1zM217 244h2v1h-2zM220 244h1v1h-1zM228 244h1v1h-1zM231 244h1v1h-1zM234 244h1v1h-1zM237 244h1v1h-1zM423 242h1v3h-1zM427 244h1v1h-1zM605 244h2v1h-2zM609 244h2v1h-2zM612 244h2v1h-2zM620 244h1v1h-1zM424 247h1v1h-1zM210 248h2v1h-2zM237 248h2v1h-2zM620 248h1v1h-1zM423 248h1v2h-1zM565 249h1v1h-1zM410 250h5v1h-5zM564 250h1v1h-1zM211 251h1v1h-1zM237 251h1v1h-1zM619 251h1v1h-1zM257 252h2v1h-2zM403 252h3v1h-3zM423 252h1v1h-1zM425 252h1v1h-1zM230 253h1v1h-1zM257 253h3v1h-3zM211 254h1v1h-1zM237 254h1v1h-1zM254 254h1v1h-1zM257 254h1v1h-1zM569 253h2v2h-2zM576 254h1v1h-1zM597 254h1v1h-1zM619 254h2v1h-2zM230 255h1v1h-1zM257 255h3v1h-3zM403 255h3v1h-3zM418 255h3v1h-3zM433 255h3v1h-3zM569 255h3v1h-3zM226 257h3v1h-3zM211 258h1v1h-1zM237 258h1v1h-1zM241 258h1v1h-1zM252 258h1v1h-1zM254 258h1v1h-1zM386 258h1v1h-1zM394 258h2v1h-2zM434 258h1v1h-1zM440 258h2v1h-2zM574 258h1v1h-1zM581 258h1v1h-1zM583 258h1v1h-1zM606 258h1v1h-1zM620 258h1v1h-1zM227 259h1v1h-1zM247 259h1v1h-1zM253 259h1v1h-1zM403 258h1v2h-1zM435 259h1v1h-1zM440 259h1v1h-1zM574 259h3v1h-3zM582 259h2v1h-2zM245 260h1v1h-1zM393 259h1v2h-1zM395 260h1v1h-1zM403 260h3v1h-3zM410 259h1v2h-1zM433 260h3v1h-3zM582 260h3v1h-3zM224 261h2v1h-2zM210 262h1v1h-1zM237 262h1v1h-1zM619 262h2v1h-2zM259 259h1v5h-1zM398 263h3v1h-3zM430 263h1v1h-1zM220 264h1v1h-1zM393 264h1v1h-1zM414 264h1v1h-1zM425 263h1v2h-1zM570 261h1v4h-1zM210 265h2v1h-2zM237 265h1v1h-1zM259 265h107v1h-107zM395 264h1v2h-1zM400 264h1v2h-1zM403 264h1v2h-1zM433 264h2v2h-2zM463 265h107v1h-107zM619 265h2v1h-2zM367 266h1v1h-1zM368 267h1v1h-1zM460 267h1v1h-1zM210 268h2v1h-2zM237 268h1v1h-1zM369 268h1v1h-1zM413 268h1v1h-1zM415 268h1v1h-1zM418 268h1v1h-1zM592 268h1v1h-1zM619 268h2v1h-2zM370 269h1v1h-1zM404 269h1v1h-1zM371 270h1v1h-1zM211 271h1v1h-1zM231 271h1v1h-1zM372 271h1v1h-1zM403 270h1v2h-1zM414 270h1v2h-1zM596 271h1v1h-1zM599 271h1v1h-1zM616 271h1v1h-1zM214 271h1v2h-1zM224 271h1v2h-1zM373 272h1v1h-1zM403 272h3v1h-3zM410 271h1v2h-1zM413 272h1v1h-1zM415 272h1v1h-1zM419 272h1v1h-1zM592 271h1v2h-1zM602 271h1v2h-1zM374 273h1v1h-1zM375 274h1v1h-1zM376 275h1v1h-1zM403 275h2v1h-2zM377 276h1v1h-1zM378 277h1v1h-1zM418 277h1v1h-1zM403 276h1v3h-1zM414 278h1v1h-1zM380 279h1v1h-1zM381 280h1v1h-1zM403 281h3v1h-3zM384 283h1v1h-1zM414 283h1v1h-1zM385 284h1v1h-1zM403 282h1v3h-1zM439 288h1v1h-1zM403 289h1v1h-1zM410 288h1v2h-1zM414 289h1v1h-1zM391 293h5v1h-5zM397 293h1v1h-1zM403 293h3v1h-3zM410 293h1v1h-1zM418 293h3v1h-3zM423 293h3v1h-3zM430 293h8v1h-8zM403 296h3v1h-3zM413 296h1v1h-1zM419 296h2v1h-2zM424 296h2v1h-2zM414 297h1v1h-1zM398 294h1v7h-1zM403 299h1v2h-1zM410 300h1v1h-1zM404 301h2v1h-2zM408 301h2v1h-2zM418 301h1v1h-1zM423 301h3v1h-3zM393 304h1v1h-1zM403 305h1v1h-1zM410 304h1v2h-1zM414 305h1v1h-1zM393 306h1v1h-1zM435 304h1v3h-1zM413 309h1v1h-1zM415 309h1v1h-1zM425 309h1v1h-1zM433 309h2v1h-2zM403 310h1v3h-1zM414 311h1v2h-1zM419 312h1v1h-1zM414 316h1v1h-1zM403 316h1v2h-1zM410 315h1v3h-1zM418 317h3v1h-3zM399 319h2v1h-2zM410 320h1v1h-1zM414 320h2v1h-2zM420 320h1v1h-1zM429 320h1v1h-1zM399 321h2v1h-2zM409 321h1v1h-1zM418 320h1v2h-1zM423 320h1v2h-1zM425 320h1v2h-1zM394 324h1v1h-1zM413 324h1v1h-1zM415 324h1v1h-1zM430 323h1v2h-1zM408 325h1v1h-1zM411 325h1v1h-1zM418 324h1v2h-1zM420 325h1v1h-1zM403 328h1v1h-1zM414 328h1v1h-1zM424 328h1v1h-1zM399 329h1v1h-1zM418 329h1v2h-1zM420 329h1v2h-1zM403 331h3v1h-3zM418 333h3v1h-3zM381 334h2v1h-2zM425 334h1v1h-1zM381 335h1v1h-1zM427 334h1v2h-1zM438 335h1v1h-1zM388 336h3v1h-3zM400 336h1v1h-1zM403 336h2v1h-2zM427 336h3v1h-3zM438 336h3v1h-3zM444 336h2v1h-2zM481 338h1v1h-1zM379 339h1v1h-1zM382 339h1v1h-1zM462 339h3v1h-3zM358 340h1v1h-1zM361 339h1v2h-1zM368 339h1v2h-1zM382 340h2v1h-2zM385 340h1v1h-1zM398 339h1v2h-1zM412 339h1v2h-1zM430 340h1v1h-1zM444 340h2v1h-2zM455 339h1v2h-1zM457 339h1v2h-1zM462 340h1v1h-1zM469 339h1v2h-1zM364 341h2v1h-2zM369 341h2v1h-2zM373 341h3v1h-3zM399 341h2v1h-2zM453 341h3v1h-3zM458 341h2v1h-2zM463 341h1v1h-1zM467 341h1v1h-1zM470 341h2v1h-2zM434 343h1v1h-1zM480 339h2v5h-2zM348 344h2v1h-2zM353 344h1v1h-1zM481 344h1v1h-1zM488 344h1v1h-1zM338 343h1v3h-1zM389 345h1v1h-1zM396 343h1v3h-1zM410 343h1v3h-1zM440 344h1v2h-1zM488 345h3v1h-3zM319 348h1v1h-1zM321 348h1v1h-1zM339 348h2v1h-2zM441 348h1v1h-1zM492 348h2v1h-2zM496 348h1v1h-1zM336 349h1v1h-1zM340 349h1v1h-1zM382 348h1v2h-1zM386 348h1v2h-1zM450 349h1v1h-1zM514 348h1v2h-1zM319 350h1v1h-1zM381 350h1v1h-1zM385 350h2v1h-2zM410 349h1v2h-1zM423 350h3v1h-3zM439 350h3v1h-3zM492 350h2v1h-2zM496 350h1v1h-1zM309 347h1v5h-1zM309 352h6v1h-6zM357 352h2v1h-2zM364 352h2v1h-2zM370 352h1v1h-1zM378 352h1v1h-1zM404 352h2v1h-2zM453 352h3v1h-3zM457 352h1v1h-1zM468 352h1v1h-1zM515 352h4v1h-4zM531 352h1v1h-1zM300 352h1v2h-1zM375 352h1v2h-1zM377 353h1v1h-1zM423 353h1v1h-1zM425 353h1v1h-1zM450 353h1v1h-1zM525 353h1v1h-1zM305 354h2v1h-2zM368 353h1v2h-1zM377 354h2v1h-2zM382 354h1v1h-1zM403 353h1v2h-1zM448 353h1v2h-1zM460 352h1v3h-1zM468 354h1v1h-1zM524 354h2v1h-2zM530 354h1v1h-1zM485 357h1v1h-1zM530 357h2v1h-2zM281 357h1v2h-1zM295 358h1v1h-1zM340 358h1v1h-1zM345 358h1v1h-1zM347 357h1v2h-1zM352 358h1v1h-1zM471 357h1v2h-1zM475 358h1v1h-1zM530 358h1v1h-1zM545 358h1v1h-1zM548 357h1v2h-1zM279 359h2v1h-2zM300 357h1v3h-1zM343 359h2v1h-2zM353 359h1v1h-1zM427 357h1v3h-1zM430 358h1v2h-1zM537 357h1v3h-1zM549 359h2v1h-2zM268 361h2v1h-2zM273 361h1v1h-1zM331 361h3v1h-3zM398 361h3v1h-3zM433 361h3v1h-3zM574 361h1v1h-1zM394 362h2v1h-2zM555 362h1v1h-1zM319 363h6v1h-6zM501 362h1v2h-1zM506 363h6v1h-6zM270 364h1v1h-1zM323 364h2v1h-2zM331 364h1v1h-1zM398 364h3v1h-3zM433 364h2v1h-2zM488 364h3v1h-3zM493 364h3v1h-3zM498 364h1v1h-1zM500 364h1v1h-1zM507 364h4v1h-4zM386 365h6v1h-6zM441 365h3v1h-3zM568 361h1v5h-1zM260 364h1v3h-1zM387 366h1v1h-1zM568 367h1v1h-1zM574 365h1v3h-1zM578 367h1v1h-1zM257 368h1v1h-1zM512 364h1v6h-1zM391 366h1v5h-1zM444 366h1v5h-1zM245 372h1v1h-1zM320 373h1v1h-1zM510 373h1v1h-1zM571 372h1v2h-1zM582 373h1v1h-1zM255 374h3v1h-3zM572 374h2v1h-2zM573 376h1v1h-1zM250 377h2v1h-2zM314 377h2v1h-2zM516 377h1v1h-1zM313 378h1v1h-1zM571 377h1v2h-1zM516 379h1v1h-1zM316 382h1v3h-1zM380 382h1v3h-1zM315 387h1v1h-1zM381 387h1v1h-1zM515 387h1v1h-1zM582 387h1v1h-1zM246 387h1v2h-1zM314 388h1v1h-1zM382 388h1v1h-1zM449 388h1v1h-1zM385 391h1v7h-1zM313 400h1v1h-1zM244 400h1v2h-1zM383 400h1v2h-1zM517 400h1v2h-1zM584 400h1v2h-1zM450 404h1v2h-1zM244 404h1v3h-1zM313 405h1v2h-1zM383 404h1v3h-1zM584 404h1v3h-1zM244 409h1v2h-1zM383 409h1v2h-1zM450 409h1v2h-1zM584 409h1v2h-1zM246 411h1v1h-1zM315 411h1v1h-1zM381 411h2v1h-2zM448 411h2v1h-2zM515 411h2v1h-2zM582 411h2v1h-2zM319 416h1v1h-1zM310 416h1v2h-1zM321 417h1v1h-1zM442 417h2v1h-2zM448 417h3v1h-3zM454 417h3v1h-3zM512 417h1v1h-1zM322 418h1v1h-1zM441 418h4v1h-4zM449 418h1v1h-1zM453 418h5v1h-5zM520 418h2v1h-2zM574 418h18v1h-18zM250 418h1v2h-1zM373 419h18v1h-18zM447 418h1v2h-1zM450 419h1v1h-1zM453 419h1v1h-1zM508 419h1v1h-1zM521 419h3v1h-3zM251 420h1v1h-1zM307 418h1v3h-1zM375 420h14v1h-14zM444 419h1v2h-1zM447 420h2v1h-2zM453 420h2v1h-2zM456 420h1v1h-1zM522 420h1v1h-1zM253 421h1v1h-1zM308 421h1v1h-1zM391 420h1v2h-1zM443 421h2v1h-2zM449 421h2v1h-2zM454 421h3v1h-3zM509 421h2v1h-2zM521 421h1v1h-1zM573 419h2v3h-2zM578 421h1v1h-1zM241 421h1v2h-1zM254 422h1v1h-1zM309 422h1v1h-1zM319 422h3v1h-3zM375 422h1v1h-1zM522 422h1v1h-1zM573 422h1v1h-1zM576 422h15v1h-15zM310 423h11v1h-11zM376 423h2v1h-2zM387 423h2v1h-2zM246 424h1v1h-1zM307 423h1v2h-1zM311 424h8v1h-8zM378 424h1v1h-1zM385 424h2v1h-2zM515 424h2v1h-2zM519 422h1v3h-1zM379 425h1v1h-1zM384 425h2v1h-2zM577 425h1v1h-1zM242 426h1v1h-1zM246 426h1v1h-1zM248 426h1v1h-1zM251 426h1v1h-1zM383 426h1v1h-1zM447 425h1v2h-1zM450 425h1v2h-1zM453 425h2v2h-2zM578 426h1v1h-1zM306 425h1v3h-1zM444 427h1v1h-1zM454 427h1v1h-1zM515 426h2v2h-2zM579 427h2v1h-2zM306 428h3v1h-3zM321 428h1v1h-1zM323 423h1v6h-1zM578 428h1v1h-1zM242 429h2v1h-2zM306 429h2v1h-2zM310 429h1v1h-1zM320 429h1v1h-1zM375 429h2v1h-2zM388 429h1v1h-1zM307 430h1v1h-1zM390 422h2v9h-2zM448 430h3v1h-3zM454 430h1v1h-1zM577 429h1v2h-1zM581 430h1v1h-1zM374 431h1v1h-1zM389 431h1v1h-1zM447 431h2v1h-2zM453 431h2v1h-2zM456 431h1v1h-1zM509 431h1v1h-1zM242 432h1v1h-1zM322 429h2v4h-2zM391 431h1v2h-1zM453 432h1v1h-1zM520 432h1v1h-1zM523 432h1v1h-1zM573 423h2v10h-2zM306 433h1v1h-1zM323 433h1v1h-1zM441 433h3v1h-3zM449 433h1v1h-1zM455 433h1v1h-1zM457 433h1v1h-1zM510 433h1v1h-1zM513 433h1v1h-1zM515 428h1v6h-1zM518 433h1v1h-1zM521 433h1v1h-1zM253 423h2v12h-2zM310 434h1v1h-1zM442 434h2v1h-2zM448 434h3v1h-3zM454 434h3v1h-3zM519 434h1v1h-1zM254 435h1v1h-1zM319 435h1v1h-1z"/>
<path fill="#ea7225" d="M404 34h1v1h-1zM407 34h1v1h-1zM410 34h1v1h-1zM418 34h1v1h-1zM400 38h1v1h-1zM428 38h1v1h-1zM428 42h1v1h-1zM413 42h2v2h-2zM415 47h1v1h-1zM419 48h2v1h-2zM408 48h1v2h-1zM420 49h1v1h-1zM413 48h3v3h-3zM428 52h1v1h-1zM400 56h1v1h-1zM400 59h1v1h-1zM428 59h1v1h-1zM400 63h1v1h-1zM404 63h1v1h-1zM407 63h1v1h-1zM410 63h1v1h-1zM414 63h1v1h-1zM418 63h1v1h-1zM424 63h1v1h-1zM412 69h2v1h-2zM415 69h1v1h-1zM279 70h1v1h-1zM296 70h1v1h-1zM414 70h2v1h-2zM414 71h1v1h-1zM412 70h1v3h-1zM415 72h1v1h-1zM528 73h1v1h-1zM551 74h1v1h-1zM305 75h1v1h-1zM549 75h2v1h-2zM303 76h1v1h-1zM414 76h1v1h-1zM528 76h1v1h-1zM549 76h3v1h-3zM304 77h1v1h-1zM548 77h3v1h-3zM303 78h2v1h-2zM414 79h1v1h-1zM546 79h1v1h-1zM549 79h2v1h-2zM283 78h3v3h-3zM288 78h4v3h-4zM294 78h3v3h-3zM544 81h1v1h-1zM309 82h1v1h-1zM414 82h1v1h-1zM523 82h3v2h-3zM548 81h3v3h-3zM304 84h1v1h-1zM525 84h1v1h-1zM283 83h3v3h-3zM288 83h4v3h-4zM294 83h3v3h-3zM541 82h4v4h-4zM548 84h4v2h-4zM288 86h1v1h-1zM309 86h1v1h-1zM544 86h1v1h-1zM318 87h1v2h-1zM415 87h1v2h-1zM510 87h2v2h-2zM548 87h4v2h-4zM548 89h1v1h-1zM550 89h1v1h-1zM283 89h3v3h-3zM289 89h3v3h-3zM294 89h3v3h-3zM535 87h3v5h-3zM541 87h4v5h-4zM548 90h4v2h-4zM314 93h2v1h-2zM327 92h2v2h-2zM413 93h1v1h-1zM415 92h1v2h-1zM275 94h1v1h-1zM314 94h1v1h-1zM515 93h2v2h-2zM339 98h2v1h-2zM411 97h7v2h-7zM506 98h2v2h-2zM411 99h2v4h-2zM416 99h2v4h-2zM470 101h3v2h-3zM470 103h1v1h-1zM472 103h1v1h-1zM332 103h2v2h-2zM343 103h3v2h-3zM357 101h2v4h-2zM411 103h7v2h-7zM470 104h3v1h-3zM483 103h3v2h-3zM488 103h2v2h-2zM498 104h1v1h-1zM357 108h2v2h-2zM415 108h1v2h-1zM470 108h2v2h-2zM343 108h3v3h-3zM348 108h3v3h-3zM478 108h3v3h-3zM483 108h3v3h-3zM413 113h2v1h-2zM434 113h2v1h-2zM343 114h1v1h-1zM349 113h2v2h-2zM415 114h1v1h-1zM462 114h2v1h-2zM478 113h2v2h-2zM343 115h3v1h-3zM348 115h3v1h-3zM414 115h1v1h-1zM478 115h3v1h-3zM484 114h1v2h-1zM524 115h1v1h-1zM432 114h1v3h-1zM435 114h1v4h-1zM414 118h2v1h-2zM420 119h1v1h-1zM365 120h2v1h-2zM413 119h3v2h-3zM365 121h1v1h-1zM419 120h2v2h-2zM463 120h1v2h-1zM309 125h1v1h-1zM414 124h1v2h-1zM360 124h2v3h-2zM364 124h3v3h-3zM418 124h3v3h-3zM462 124h3v3h-3zM467 124h2v3h-2zM377 130h3v1h-3zM393 130h1v1h-1zM397 130h1v1h-1zM409 130h1v1h-1zM364 130h2v2h-2zM369 130h2v2h-2zM377 131h1v1h-1zM379 131h1v1h-1zM415 130h3v2h-3zM443 130h2v2h-2zM454 130h1v2h-1zM458 130h2v2h-2zM462 129h3v3h-3zM453 135h2v1h-2zM594 135h1v1h-1zM597 135h1v1h-1zM369 135h2v2h-2zM397 136h1v1h-1zM453 136h1v1h-1zM458 135h2v2h-2zM378 135h2v3h-2zM382 136h1v2h-1zM415 136h1v2h-1zM442 136h2v2h-2zM449 136h2v2h-2zM453 137h2v1h-2zM415 140h1v1h-1zM384 141h1v1h-1zM413 141h3v1h-3zM374 142h1v1h-1zM378 142h1v1h-1zM411 142h1v1h-1zM413 142h1v1h-1zM453 142h2v1h-2zM600 142h2v1h-2zM387 142h3v2h-3zM398 142h3v2h-3zM414 143h1v1h-1zM439 142h2v2h-2zM443 142h3v2h-3zM448 140h3v4h-3zM594 143h2v1h-2zM599 143h4v1h-4zM606 143h2v1h-2zM607 144h1v1h-1zM597 145h1v1h-1zM605 145h1v1h-1zM413 147h2v1h-2zM428 147h1v1h-1zM234 148h2v1h-2zM388 147h2v2h-2zM595 148h2v1h-2zM605 148h3v1h-3zM398 147h3v3h-3zM414 148h1v2h-1zM428 148h2v2h-2zM433 147h3v3h-3zM438 147h3v3h-3zM582 149h2v1h-2zM593 149h4v1h-4zM583 150h1v1h-1zM593 150h3v1h-3zM605 149h4v2h-4zM594 151h2v1h-2zM605 151h3v1h-3zM239 152h1v1h-1zM276 152h8v1h-8zM400 152h1v1h-1zM413 152h3v1h-3zM428 152h2v1h-2zM544 152h8v1h-8zM282 153h2v1h-2zM413 153h1v1h-1zM415 153h1v1h-1zM428 153h3v1h-3zM433 153h2v1h-2zM550 153h2v1h-2zM596 153h1v1h-1zM604 153h1v1h-1zM223 151h4v4h-4zM272 154h1v1h-1zM399 153h2v2h-2zM404 153h2v2h-2zM413 154h3v1h-3zM423 153h2v2h-2zM601 154h2v1h-2zM605 154h1v1h-1zM271 155h2v1h-2zM428 154h2v2h-2zM570 155h1v1h-1zM582 154h2v2h-2zM599 155h4v1h-4zM557 156h2v1h-2zM594 156h1v1h-1zM606 156h2v1h-2zM551 154h1v4h-1zM600 156h2v2h-2zM228 158h1v1h-1zM239 158h1v1h-1zM245 158h1v1h-1zM276 153h1v6h-1zM283 154h1v5h-1zM301 158h2v1h-2zM413 158h3v1h-3zM544 153h1v6h-1zM550 158h2v1h-2zM246 159h1v1h-1zM251 159h1v1h-1zM276 159h8v1h-8zM403 158h3v2h-3zM408 158h2v2h-2zM413 159h1v1h-1zM415 159h1v1h-1zM544 159h8v1h-8zM220 160h1v1h-1zM224 158h3v3h-3zM229 160h2v1h-2zM419 159h2v2h-2zM423 158h3v3h-3zM523 157h4v4h-4zM286 162h1v1h-1zM218 161h4v4h-4zM224 163h3v2h-3zM229 161h3v4h-3zM285 163h1v2h-1zM301 163h2v2h-2zM408 163h1v2h-1zM419 163h2v2h-2zM524 163h1v2h-1zM536 164h1v1h-1zM234 167h2v1h-2zM515 167h3v1h-3zM420 167h1v2h-1zM234 168h1v2h-1zM408 167h1v3h-1zM419 169h2v1h-2zM515 169h2v1h-2zM531 168h2v2h-2zM393 172h1v1h-1zM524 172h2v1h-2zM391 172h1v2h-1zM393 173h2v1h-2zM408 172h1v2h-1zM413 173h1v1h-1zM420 172h1v2h-1zM515 172h2v2h-2zM528 172h2v2h-2zM290 172h3v3h-3zM295 172h3v3h-3zM391 174h4v1h-4zM440 171h4v4h-4zM524 174h2v1h-2zM528 174h3v1h-3zM327 176h3v1h-3zM408 176h1v1h-1zM414 176h1v1h-1zM499 176h3v1h-3zM305 177h2v1h-2zM309 177h1v1h-1zM419 177h2v1h-2zM301 177h1v2h-1zM305 178h1v1h-1zM310 178h1v1h-1zM330 177h1v2h-1zM408 177h2v2h-2zM418 178h3v1h-3zM515 176h2v3h-2zM524 177h1v2h-1zM327 177h1v3h-1zM328 180h1v1h-1zM328 181h2v1h-2zM413 181h3v1h-3zM418 181h1v1h-1zM500 181h2v1h-2zM305 181h2v2h-2zM512 180h1v3h-1zM519 181h2v2h-2zM413 184h3v1h-3zM415 185h1v1h-1zM485 184h1v2h-1zM319 185h3v2h-3zM328 185h2v2h-2zM347 184h1v3h-1zM408 185h2v2h-2zM413 186h3v1h-3zM424 185h1v2h-1zM483 186h3v1h-3zM500 185h2v2h-2zM314 185h3v3h-3zM320 187h2v1h-2zM507 185h3v3h-3zM512 185h2v3h-2zM353 190h2v1h-2zM423 190h3v1h-3zM310 191h2v1h-2zM320 190h2v2h-2zM349 190h1v2h-1zM352 191h3v1h-3zM507 190h3v2h-3zM517 191h2v1h-2zM311 192h1v1h-1zM353 192h2v1h-2zM373 190h3v3h-3zM408 190h2v3h-2zM423 191h2v2h-2zM335 192h2v2h-2zM353 195h1v1h-1zM373 195h2v1h-2zM484 195h1v1h-1zM335 196h2v2h-2zM339 196h3v2h-3zM352 196h1v2h-1zM373 196h3v2h-3zM419 196h1v2h-1zM423 195h3v3h-3zM483 196h2v2h-2zM488 196h2v2h-2zM492 196h2v2h-2zM478 200h1v1h-1zM413 201h3v1h-3zM335 201h3v2h-3zM344 201h2v2h-2zM353 200h2v3h-2zM357 201h2v2h-2zM373 201h2v2h-2zM378 201h2v2h-2zM413 202h1v1h-1zM419 201h2v2h-2zM461 201h2v2h-2zM478 201h3v2h-3zM483 201h2v2h-2zM488 201h2v2h-2zM492 201h2v2h-2zM353 205h3v1h-3zM358 205h2v1h-2zM428 205h1v1h-1zM478 205h1v1h-1zM353 206h2v1h-2zM359 206h1v1h-1zM377 205h3v2h-3zM414 206h2v1h-2zM419 206h2v1h-2zM458 205h2v2h-2zM467 205h3v2h-3zM353 207h3v1h-3zM360 207h1v1h-1zM364 205h3v3h-3zM378 207h2v1h-2zM467 207h1v1h-1zM474 205h2v3h-2zM478 206h2v2h-2zM370 209h1v1h-1zM413 209h1v1h-1zM415 209h1v1h-1zM369 210h1v1h-1zM392 210h2v1h-2zM413 210h3v1h-3zM419 210h2v1h-2zM454 210h1v1h-1zM354 211h1v1h-1zM360 210h2v2h-2zM368 211h2v1h-2zM373 210h2v2h-2zM378 210h1v2h-1zM453 211h2v1h-2zM458 210h2v2h-2zM467 210h2v2h-2zM472 210h3v2h-3zM424 214h1v1h-1zM482 214h3v1h-3zM351 214h1v2h-1zM369 215h1v1h-1zM450 214h1v2h-1zM478 215h2v1h-2zM482 215h1v1h-1zM484 215h1v1h-1zM373 214h2v3h-2zM388 215h1v2h-1zM408 215h1v2h-1zM413 214h3v3h-3zM419 214h2v3h-2zM423 215h3v2h-3zM448 216h3v1h-3zM453 215h2v2h-2zM462 214h3v3h-3zM482 216h3v1h-3zM393 220h3v1h-3zM381 220h3v2h-3zM393 221h1v1h-1zM395 221h1v1h-1zM408 220h2v2h-2zM413 220h1v2h-1zM415 219h1v3h-1zM448 220h3v2h-3zM393 222h3v1h-3zM413 222h2v1h-2zM418 220h3v3h-3zM444 222h1v1h-1zM448 222h1v1h-1zM450 222h1v1h-1zM453 220h2v3h-2zM290 225h1v1h-1zM387 225h3v1h-3zM398 225h1v1h-1zM409 225h1v1h-1zM439 225h2v1h-2zM290 226h2v1h-2zM438 226h3v1h-3zM536 226h1v1h-1zM290 227h1v1h-1zM388 226h2v2h-2zM393 225h3v3h-3zM398 226h3v2h-3zM408 226h2v2h-2zM413 225h1v3h-1zM415 226h1v2h-1zM418 225h3v3h-3zM428 226h2v2h-2zM439 227h2v1h-2zM444 225h2v3h-2zM278 230h6v1h-6zM545 230h6v1h-6zM414 231h2v1h-2zM418 231h3v1h-3zM434 231h1v1h-1zM438 231h3v1h-3zM516 231h3v1h-3zM408 232h1v1h-1zM413 232h3v1h-3zM419 232h2v1h-2zM438 232h2v1h-2zM286 231h3v3h-3zM393 233h3v1h-3zM398 231h3v3h-3zM403 231h3v3h-3zM415 233h1v1h-1zM423 231h3v3h-3zM433 232h3v2h-3zM539 231h3v3h-3zM550 231h1v3h-1zM283 231h1v5h-1zM550 235h1v1h-1zM273 237h2v2h-2zM398 236h3v3h-3zM403 236h2v3h-2zM424 236h2v3h-2zM428 236h3v3h-3zM433 236h2v3h-2zM553 238h2v1h-2zM557 237h3v3h-3zM224 244h1v1h-1zM399 242h2v3h-2zM403 242h2v3h-2zM424 242h2v3h-2zM428 242h2v3h-2zM563 244h2v1h-2zM592 244h1v1h-1zM596 244h1v1h-1zM599 244h1v1h-1zM602 244h1v1h-1zM616 244h1v1h-1zM619 244h1v1h-1zM425 247h1v1h-1zM592 248h1v1h-1zM619 248h1v1h-1zM263 248h1v2h-1zM266 248h3v2h-3zM403 248h2v2h-2zM424 248h2v2h-2zM563 248h1v2h-1zM592 251h1v1h-1zM231 252h2v2h-2zM229 254h4v1h-4zM253 254h1v1h-1zM403 253h3v2h-3zM408 253h2v2h-2zM418 253h3v2h-3zM433 253h3v2h-3zM575 254h1v1h-1zM592 254h1v1h-1zM598 251h4v4h-4zM604 251h4v4h-4zM610 251h4v4h-4zM413 253h3v3h-3zM423 253h3v3h-3zM228 255h2v2h-2zM225 258h3v1h-3zM410 258h1v1h-1zM575 258h2v1h-2zM587 258h2v1h-2zM592 258h1v1h-1zM619 258h1v1h-1zM224 259h3v1h-3zM386 259h1v1h-1zM394 259h2v1h-2zM404 258h2v2h-2zM433 259h2v1h-2zM570 259h1v1h-1zM217 258h2v3h-2zM224 260h2v1h-2zM246 260h3v1h-3zM408 260h1v1h-1zM414 258h1v3h-1zM418 260h3v1h-3zM423 258h3v3h-3zM581 259h1v2h-1zM211 262h1v1h-1zM219 262h5v1h-5zM592 262h1v1h-1zM220 263h3v1h-3zM428 263h2v1h-2zM221 264h2v1h-2zM423 263h2v2h-2zM430 264h1v1h-1zM366 265h1v1h-1zM393 265h1v1h-1zM398 264h2v2h-2zM404 264h2v2h-2zM414 265h1v1h-1zM423 265h3v1h-3zM428 265h3v1h-3zM462 265h1v1h-1zM592 265h1v1h-1zM604 262h4v4h-4zM461 266h1v1h-1zM459 268h1v1h-1zM403 269h1v1h-1zM405 269h1v1h-1zM413 269h3v1h-3zM458 269h1v1h-1zM457 270h1v1h-1zM404 270h2v2h-2zM413 270h1v2h-1zM415 270h1v2h-1zM456 271h1v1h-1zM418 272h1v1h-1zM420 272h1v1h-1zM423 269h3v4h-3zM455 272h1v1h-1zM454 273h1v1h-1zM453 274h1v1h-1zM405 275h1v1h-1zM414 275h1v1h-1zM452 275h1v1h-1zM414 276h2v1h-2zM418 276h3v1h-3zM451 276h1v1h-1zM409 277h1v1h-1zM419 277h2v1h-2zM450 277h1v1h-1zM379 278h1v1h-1zM404 276h2v3h-2zM415 277h1v2h-1zM418 278h3v1h-3zM423 275h3v4h-3zM449 278h1v1h-1zM448 279h1v1h-1zM447 280h1v1h-1zM382 281h1v1h-1zM413 281h3v1h-3zM418 281h2v1h-2zM446 281h1v1h-1zM383 282h1v1h-1zM410 281h1v2h-1zM418 282h3v1h-3zM445 282h1v1h-1zM413 282h1v2h-1zM415 282h1v2h-1zM444 283h1v1h-1zM404 282h2v3h-2zM414 284h2v1h-2zM423 281h3v4h-3zM443 284h1v1h-1zM386 285h1v1h-1zM442 285h1v1h-1zM387 286h1v1h-1zM441 286h1v1h-1zM388 287h1v1h-1zM440 287h1v1h-1zM389 288h1v1h-1zM403 288h3v1h-3zM414 288h2v1h-2zM390 289h1v1h-1zM405 289h1v1h-1zM409 289h1v1h-1zM415 289h1v1h-1zM418 288h3v2h-3zM438 289h1v1h-1zM403 290h3v1h-3zM414 290h1v1h-1zM418 290h2v1h-2zM423 288h3v3h-3zM430 294h8v1h-8zM391 294h7v2h-7zM403 294h3v2h-3zM413 295h1v1h-1zM425 294h1v2h-1zM415 296h1v1h-1zM423 296h1v1h-1zM391 296h2v3h-2zM397 296h1v3h-1zM430 295h2v4h-2zM436 295h2v4h-2zM415 299h1v1h-1zM391 299h7v2h-7zM404 299h2v2h-2zM423 299h3v2h-3zM430 299h8v2h-8zM403 304h3v1h-3zM404 305h2v1h-2zM394 304h2v3h-2zM403 306h3v1h-3zM414 306h1v1h-1zM423 304h3v3h-3zM433 304h2v3h-2zM414 310h2v1h-2zM418 311h2v1h-2zM394 310h2v3h-2zM404 310h2v3h-2zM410 312h1v1h-1zM413 311h1v2h-1zM415 311h1v2h-1zM418 312h1v1h-1zM420 312h1v1h-1zM423 310h3v3h-3zM433 310h2v3h-2zM403 315h1v1h-1zM408 315h2v1h-2zM413 315h3v1h-3zM418 315h1v1h-1zM420 315h1v1h-1zM409 316h1v1h-1zM413 316h1v1h-1zM418 316h3v1h-3zM404 317h2v1h-2zM408 317h2v1h-2zM415 316h1v2h-1zM423 317h1v1h-1zM425 317h1v1h-1zM399 318h2v1h-2zM428 318h2v2h-2zM399 320h2v1h-2zM409 320h1v1h-1zM419 320h1v1h-1zM428 320h1v1h-1zM404 320h2v2h-2zM410 321h1v1h-1zM413 321h3v1h-3zM419 321h2v1h-2zM424 320h1v2h-1zM409 324h2v1h-2zM419 324h2v1h-2zM428 324h2v1h-2zM398 324h3v2h-3zM404 324h2v2h-2zM410 325h1v1h-1zM419 325h1v1h-1zM423 324h3v2h-3zM428 325h3v1h-3zM423 328h1v1h-1zM425 328h1v1h-1zM414 329h1v1h-1zM429 329h1v1h-1zM393 329h1v2h-1zM395 329h1v2h-1zM398 329h1v2h-1zM403 329h3v2h-3zM410 329h2v2h-2zM419 329h1v2h-1zM423 329h3v2h-3zM393 331h3v1h-3zM433 329h3v3h-3zM438 334h3v1h-3zM382 335h1v1h-1zM385 334h1v2h-1zM388 334h3v2h-3zM393 334h2v2h-2zM400 334h1v2h-1zM403 334h2v2h-2zM410 334h2v2h-2zM418 334h3v2h-3zM424 334h1v2h-1zM428 334h2v2h-2zM439 335h2v1h-2zM443 334h3v2h-3zM348 338h7v1h-7zM475 338h6v1h-6zM374 339h2v1h-2zM383 339h3v1h-3zM428 339h3v1h-3zM444 339h2v1h-2zM468 339h1v1h-1zM364 339h2v2h-2zM369 339h2v2h-2zM373 340h3v1h-3zM379 340h1v1h-1zM384 340h1v1h-1zM395 340h1v1h-1zM399 339h2v2h-2zM410 339h2v2h-2zM419 339h2v2h-2zM428 340h2v1h-2zM433 339h2v2h-2zM448 339h3v2h-3zM453 339h2v2h-2zM458 339h2v2h-2zM463 340h2v1h-2zM470 340h2v1h-2zM360 341h1v1h-1zM348 339h1v5h-1zM433 343h1v1h-1zM435 343h1v1h-1zM475 339h1v5h-1zM488 343h3v1h-3zM344 344h1v1h-1zM350 344h3v1h-3zM354 339h1v6h-1zM475 344h6v1h-6zM489 344h2v1h-2zM339 343h2v3h-2zM390 345h1v1h-1zM393 343h3v3h-3zM408 343h2v3h-2zM419 343h2v3h-2zM433 344h3v2h-3zM438 344h2v2h-2zM310 347h6v1h-6zM514 347h6v1h-6zM320 348h1v1h-1zM408 348h3v1h-3zM319 349h3v1h-3zM339 349h1v1h-1zM381 348h1v2h-1zM385 348h1v2h-1zM423 348h3v2h-3zM439 348h2v2h-2zM449 349h1v1h-1zM492 349h2v1h-2zM320 350h2v1h-2zM326 350h1v1h-1zM389 348h2v3h-2zM408 349h2v2h-2zM443 348h1v3h-1zM497 348h3v3h-3zM502 348h3v3h-3zM507 348h3v3h-3zM315 348h1v5h-1zM458 352h2v1h-2zM467 352h1v1h-1zM469 352h2v1h-2zM514 350h1v3h-1zM519 348h1v5h-1zM301 352h2v2h-2zM357 353h1v1h-1zM359 352h1v2h-1zM373 352h2v2h-2zM381 353h2v1h-2zM457 353h3v1h-3zM463 353h1v1h-1zM467 353h3v1h-3zM300 354h3v1h-3zM358 354h1v1h-1zM369 354h1v1h-1zM373 354h3v1h-3zM404 353h2v2h-2zM424 353h1v2h-1zM428 353h2v2h-2zM449 353h1v2h-1zM453 353h3v2h-3zM457 354h1v1h-1zM467 354h1v1h-1zM526 353h1v2h-1zM344 357h1v1h-1zM358 357h2v1h-2zM403 357h3v1h-3zM428 357h3v1h-3zM279 357h2v2h-2zM296 358h1v1h-1zM339 357h1v2h-1zM343 358h2v1h-2zM353 358h1v1h-1zM400 358h1v1h-1zM403 358h1v1h-1zM405 358h1v1h-1zM469 357h2v2h-2zM474 358h1v1h-1zM490 357h1v2h-1zM531 358h1v1h-1zM535 358h1v1h-1zM549 357h2v2h-2zM286 357h3v3h-3zM290 357h3v3h-3zM301 357h2v3h-2zM359 358h1v2h-1zM403 359h3v1h-3zM428 358h2v2h-2zM469 359h3v1h-3zM483 359h2v1h-2zM488 359h3v1h-3zM535 359h2v1h-2zM539 357h3v3h-3zM255 361h6v1h-6zM270 361h1v1h-1zM569 361h5v1h-5zM344 362h1v1h-1zM260 362h1v2h-1zM268 362h3v2h-3zM273 362h3v2h-3zM279 362h2v2h-2zM339 362h2v2h-2zM394 363h2v1h-2zM398 362h3v2h-3zM433 362h3v2h-3zM488 362h1v2h-1zM490 362h1v2h-1zM493 362h3v2h-3zM498 362h3v2h-3zM549 362h2v2h-2zM554 362h1v2h-1zM557 361h3v3h-3zM332 364h2v1h-2zM435 364h1v1h-1zM506 364h1v1h-1zM574 362h1v3h-1zM439 365h2v1h-2zM444 365h1v1h-1zM255 362h1v5h-1zM568 366h1v1h-1zM255 367h6v1h-6zM569 367h5v1h-5zM394 367h2v2h-2zM511 364h1v5h-1zM325 367h1v3h-1zM386 366h1v5h-1zM439 366h1v5h-1zM386 371h6v1h-6zM439 371h6v1h-6zM255 372h2v1h-2zM245 373h1v1h-1zM255 373h1v1h-1zM321 373h1v1h-1zM511 373h1v1h-1zM572 372h2v2h-2zM583 372h1v2h-1zM387 374h1v1h-1zM385 377h2v1h-2zM388 377h1v1h-1zM444 377h1v1h-1zM515 377h1v1h-1zM250 378h1v1h-1zM255 377h3v2h-3zM315 378h1v1h-1zM319 378h3v1h-3zM572 377h2v2h-2zM250 379h2v1h-2zM314 379h2v1h-2zM321 379h1v1h-1zM385 378h4v2h-4zM443 378h3v2h-3zM515 379h1v1h-1zM577 377h2v3h-2zM244 382h3v3h-3zM313 382h3v3h-3zM582 382h3v3h-3zM314 387h1v1h-1zM382 387h1v1h-1zM449 387h1v1h-1zM245 387h1v2h-1zM516 387h1v2h-1zM583 387h1v2h-1zM242 391h7v1h-7zM311 391h7v1h-7zM379 391h6v1h-6zM446 391h7v1h-7zM513 391h7v1h-7zM580 391h7v1h-7zM242 392h1v5h-1zM248 392h1v5h-1zM311 392h1v5h-1zM317 392h1v5h-1zM379 392h1v5h-1zM446 392h1v5h-1zM452 392h1v5h-1zM513 392h1v5h-1zM519 392h1v5h-1zM580 392h1v5h-1zM586 392h1v5h-1zM242 397h7v1h-7zM311 397h7v1h-7zM379 397h6v1h-6zM446 397h7v1h-7zM513 397h7v1h-7zM580 397h7v1h-7zM314 400h2v2h-2zM381 400h2v2h-2zM515 400h2v2h-2zM582 400h2v2h-2zM245 404h2v3h-2zM314 404h2v3h-2zM381 404h2v3h-2zM450 406h1v1h-1zM515 404h2v3h-2zM582 404h2v3h-2zM245 409h2v1h-2zM314 409h2v1h-2zM381 409h2v1h-2zM246 410h1v1h-1zM382 410h1v1h-1zM515 409h2v2h-2zM238 416h11v1h-11zM311 416h8v1h-8zM515 416h2v1h-2zM309 417h1v1h-1zM319 417h2v1h-2zM513 417h2v1h-2zM517 417h2v1h-2zM248 417h2v2h-2zM308 418h1v1h-1zM321 418h1v1h-1zM448 418h1v1h-1zM450 418h1v1h-1zM511 418h2v1h-2zM519 418h1v1h-1zM251 419h1v1h-1zM509 419h2v1h-2zM306 419h1v2h-1zM373 420h2v1h-2zM441 419h1v2h-1zM450 420h1v1h-1zM457 419h1v2h-1zM507 420h2v1h-2zM523 420h2v1h-2zM252 421h1v1h-1zM306 421h2v1h-2zM389 420h2v2h-2zM442 421h1v1h-1zM448 421h1v1h-1zM522 421h1v1h-1zM249 422h1v1h-1zM253 422h1v1h-1zM306 422h3v1h-3zM310 422h1v1h-1zM376 422h1v1h-1zM388 422h1v1h-1zM520 422h2v1h-2zM574 422h2v1h-2zM309 423h1v1h-1zM386 423h1v1h-1zM520 423h1v1h-1zM245 424h1v1h-1zM306 423h1v2h-1zM377 424h1v1h-1zM442 424h2v1h-2zM448 424h3v1h-3zM454 424h3v1h-3zM578 425h1v1h-1zM322 419h1v8h-1zM379 426h2v1h-2zM384 426h1v1h-1zM441 425h1v2h-1zM444 425h1v2h-1zM457 425h1v2h-1zM307 427h2v1h-2zM321 427h2v1h-2zM381 427h2v1h-2zM442 427h2v1h-2zM448 427h3v1h-3zM455 427h2v1h-2zM309 428h2v1h-2zM319 428h2v1h-2zM322 428h1v1h-1zM241 429h1v1h-1zM244 429h1v1h-1zM311 429h8v1h-8zM373 421h1v9h-1zM373 430h2v1h-2zM442 430h2v1h-2zM455 430h2v1h-2zM507 421h1v10h-1zM524 421h1v10h-1zM583 430h2v1h-2zM373 431h1v1h-1zM390 431h1v1h-1zM507 431h2v1h-2zM523 431h2v1h-2zM306 430h1v3h-1zM373 432h18v1h-18zM441 431h1v2h-1zM447 432h1v1h-1zM457 431h1v2h-1zM508 432h1v1h-1zM510 432h1v1h-1zM521 432h2v1h-2zM591 419h1v14h-1zM307 433h2v1h-2zM321 433h2v1h-2zM444 431h1v3h-1zM448 433h1v1h-1zM450 431h1v3h-1zM454 433h1v1h-1zM456 433h1v1h-1zM511 433h2v1h-2zM516 428h1v6h-1zM519 433h2v1h-2zM574 433h18v1h-18zM238 417h1v18h-1zM308 434h2v1h-2zM319 434h3v1h-3zM513 434h6v1h-6zM238 435h16v1h-16zM311 435h8v1h-8zM515 435h2v1h-2z"/>
<path fill="#e2a760" d="M400 34h1v1h-1zM414 34h1v1h-1zM418 42h3v2h-3zM407 42h1v3h-1zM408 45h1v1h-1zM419 44h2v2h-2zM414 54h1v1h-1zM407 55h1v1h-1zM428 56h1v1h-1zM428 63h1v1h-1zM558 67h1v1h-1zM414 69h1v1h-1zM413 70h1v2h-1zM415 71h1v1h-1zM413 72h2v1h-2zM553 75h1v1h-1zM303 77h1v1h-1zM305 76h1v3h-1zM506 93h1v1h-1zM315 94h1v1h-1zM413 99h3v4h-3zM413 108h1v2h-1zM415 113h1v1h-1zM467 113h1v1h-1zM413 114h1v2h-1zM415 115h1v1h-1zM462 115h2v1h-2zM433 114h2v3h-2zM355 115h1v5h-1zM473 119h1v1h-1zM467 120h1v1h-1zM354 121h2v1h-2zM359 121h3v1h-3zM468 121h7v1h-7zM415 135h1v1h-1zM374 136h1v1h-1zM413 140h1v1h-1zM381 141h3v1h-3zM414 142h2v1h-2zM383 142h2v2h-2zM413 143h1v1h-1zM415 143h1v1h-1zM599 144h4v2h-4zM596 145h1v2h-1zM603 146h1v1h-1zM394 147h2v1h-2zM597 147h1v1h-1zM393 148h3v1h-3zM393 149h2v1h-2zM413 148h1v2h-1zM415 147h1v3h-1zM597 152h1v2h-1zM596 154h1v1h-1zM599 154h2v1h-2zM558 154h1v2h-1zM245 159h1v1h-1zM250 159h1v1h-1zM287 162h1v1h-1zM539 162h3v1h-3zM286 163h2v2h-2zM413 165h3v1h-3zM417 164h1v2h-1zM290 167h3v3h-3zM301 167h2v3h-2zM537 167h1v3h-1zM300 172h1v1h-1zM524 173h2v1h-2zM530 172h1v2h-1zM414 173h1v2h-1zM413 176h1v1h-1zM415 176h1v1h-1zM310 177h1v1h-1zM306 178h1v1h-1zM519 176h3v3h-3zM309 180h3v1h-3zM310 181h2v1h-2zM309 182h3v1h-3zM515 180h2v3h-2zM413 185h2v1h-2zM352 190h1v1h-1zM327 191h4v1h-4zM348 190h1v2h-1zM483 190h2v2h-2zM498 191h5v1h-5zM310 192h1v1h-1zM326 192h1v1h-1zM352 192h1v1h-1zM413 190h3v3h-3zM517 192h2v1h-2zM354 195h1v1h-1zM296 197h1v1h-1zM353 196h2v2h-2zM413 195h3v3h-3zM496 190h1v8h-1zM532 197h1v1h-1zM358 206h1v1h-1zM360 205h2v2h-2zM413 206h1v1h-1zM361 207h1v1h-1zM472 205h2v3h-2zM366 209h1v1h-1zM453 210h1v1h-1zM363 210h1v2h-1zM370 210h1v2h-1zM381 210h2v2h-2zM462 210h3v2h-3zM469 210h1v2h-1zM364 212h3v1h-3zM381 214h3v1h-3zM483 215h1v1h-1zM383 215h1v2h-1zM386 215h2v2h-2zM444 215h2v2h-2zM387 220h1v2h-1zM390 220h1v2h-1zM394 221h1v1h-1zM443 220h3v2h-3zM386 222h2v1h-2zM415 222h1v1h-1zM438 220h3v3h-3zM443 222h1v1h-1zM445 222h1v1h-1zM414 225h2v1h-2zM433 225h1v1h-1zM438 225h1v1h-1zM438 227h1v1h-1zM413 231h1v1h-1zM433 231h1v1h-1zM435 231h1v1h-1zM393 231h3v2h-3zM430 231h1v2h-1zM309 231h3v3h-3zM429 233h2v1h-2zM516 232h3v2h-3zM412 236h9v1h-9zM267 244h2v1h-2zM410 239h1v8h-1zM564 248h1v2h-1zM259 252h2v1h-2zM568 252h4v1h-4zM571 253h1v2h-1zM260 253h1v3h-1zM568 253h1v3h-1zM245 257h4v1h-4zM581 257h3v1h-3zM253 258h1v1h-1zM245 258h1v2h-1zM248 258h1v2h-1zM385 259h1v1h-1zM408 258h2v2h-2zM418 258h3v2h-3zM441 259h1v1h-1zM409 260h1v1h-1zM413 258h1v3h-1zM415 258h1v3h-1zM413 263h3v1h-3zM428 264h2v1h-2zM394 264h1v2h-1zM410 263h1v3h-1zM413 264h1v2h-1zM415 264h1v2h-1zM409 269h2v1h-2zM408 270h3v1h-3zM418 269h3v3h-3zM408 271h2v2h-2zM415 275h1v1h-1zM418 275h3v1h-3zM408 275h3v2h-3zM408 277h1v1h-1zM410 277h1v1h-1zM408 278h3v1h-3zM413 275h1v4h-1zM420 281h1v1h-1zM408 281h2v2h-2zM409 283h2v1h-2zM410 284h1v1h-1zM413 284h1v1h-1zM418 283h3v2h-3zM408 288h2v1h-2zM404 289h1v1h-1zM408 289h1v1h-1zM409 290h2v1h-2zM413 288h1v3h-1zM415 290h1v1h-1zM420 290h1v1h-1zM408 293h2v1h-2zM410 294h1v2h-1zM414 295h2v1h-2zM418 294h3v2h-3zM423 294h2v2h-2zM432 295h4v1h-4zM408 296h3v1h-3zM414 296h1v1h-1zM393 296h4v3h-4zM410 299h1v1h-1zM413 299h2v1h-2zM409 300h1v1h-1zM412 300h4v1h-4zM418 300h1v1h-1zM419 301h2v1h-2zM409 304h1v1h-1zM413 304h3v1h-3zM418 304h1v1h-1zM408 305h2v1h-2zM418 305h3v1h-3zM409 306h2v1h-2zM413 305h1v2h-1zM415 305h1v2h-1zM418 306h2v1h-2zM413 310h1v1h-1zM418 310h3v1h-3zM408 310h3v2h-3zM420 311h1v1h-1zM408 312h2v1h-2zM419 315h1v1h-1zM434 315h1v1h-1zM404 315h2v2h-2zM408 316h1v1h-1zM423 315h3v2h-3zM413 317h1v1h-1zM424 317h1v1h-1zM408 324h1v1h-1zM434 324h1v1h-1zM394 329h1v2h-1zM373 339h1v1h-1zM467 339h1v1h-1zM360 339h1v2h-1zM378 339h1v2h-1zM467 340h2v1h-2zM330 348h1v1h-1zM324 348h3v2h-3zM330 349h2v1h-2zM324 350h2v1h-2zM330 350h1v1h-1zM444 348h2v3h-2zM305 353h2v1h-2zM358 353h1v1h-1zM369 353h2v1h-2zM378 353h1v1h-1zM470 353h1v1h-1zM530 353h1v1h-1zM357 354h1v1h-1zM359 354h1v1h-1zM363 353h3v2h-3zM370 354h1v1h-1zM458 354h2v1h-2zM469 354h2v1h-2zM531 354h1v1h-1zM343 357h1v1h-1zM357 357h1v1h-1zM535 357h2v1h-2zM404 358h1v1h-1zM483 357h2v2h-2zM488 357h2v2h-2zM536 358h1v1h-1zM347 359h1v1h-1zM350 357h1v3h-1zM357 358h2v2h-2zM478 357h3v3h-3zM336 362h1v1h-1zM331 362h3v2h-3zM489 362h1v2h-1zM325 364h1v3h-1zM319 364h1v5h-1zM506 365h1v4h-1zM319 369h6v1h-6zM506 369h6v1h-6zM257 372h1v1h-1zM256 373h2v1h-2zM444 374h1v1h-1zM318 377h4v1h-4zM387 377h1v1h-1zM443 377h1v1h-1zM445 377h1v1h-1zM251 378h1v1h-1zM314 378h1v1h-1zM318 378h1v1h-1zM515 378h2v1h-2zM318 379h3v1h-3zM449 383h2v1h-2zM450 384h1v1h-1zM514 382h1v3h-1zM245 400h2v2h-2zM448 400h3v2h-3zM448 404h2v3h-2zM448 409h2v1h-2zM245 410h1v1h-1zM314 410h2v1h-2zM381 410h1v1h-1zM448 410h1v1h-1zM582 409h2v2h-2zM246 419h1v1h-1zM252 420h1v1h-1zM578 420h1v1h-1zM374 421h1v1h-1zM508 421h1v1h-1zM523 421h1v1h-1zM248 419h1v4h-1zM250 422h3v1h-3zM509 422h3v1h-3zM511 423h1v1h-1zM513 423h2v1h-2zM241 424h4v1h-4zM512 424h2v1h-2zM517 423h2v2h-2zM378 425h1v1h-1zM515 425h3v1h-3zM241 426h1v1h-1zM244 426h1v1h-1zM250 426h1v1h-1zM246 429h2v1h-2zM249 429h1v1h-1zM389 430h1v1h-1zM582 430h1v1h-1zM249 432h1v1h-1zM251 432h1v1h-1zM509 432h1v1h-1z"/>
<path fill="#f3ede4" d="M408 42h3v2h-3zM408 44h2v1h-2zM409 45h1v1h-1zM407 52h3v2h-3zM419 52h2v2h-2zM407 54h4v1h-4zM408 55h3v1h-3zM418 54h3v2h-3zM552 75h1v1h-1zM468 113h7v1h-7zM354 113h8v2h-8zM467 114h8v1h-8zM354 115h1v5h-1zM360 115h2v5h-2zM467 115h2v5h-2zM474 115h1v5h-1zM354 120h8v1h-8zM468 120h7v1h-7zM413 135h2v3h-2zM381 142h2v2h-2zM597 146h1v1h-1zM604 146h1v1h-1zM393 147h1v1h-1zM395 149h1v1h-1zM411 163h6v2h-6zM539 163h3v2h-3zM411 165h1v1h-1zM535 167h2v3h-2zM301 172h2v3h-2zM309 181h1v1h-1zM325 190h8v1h-8zM497 190h8v1h-8zM325 191h2v1h-2zM325 192h1v4h-1zM331 191h2v5h-2zM497 191h1v5h-1zM503 191h2v5h-2zM325 196h8v2h-8zM497 196h8v2h-8zM364 209h2v1h-2zM364 210h3v2h-3zM381 215h2v2h-2zM388 220h2v2h-2zM388 222h3v1h-3zM434 225h2v1h-2zM433 226h3v2h-3zM428 231h2v2h-2zM428 233h1v1h-1zM408 237h13v2h-13zM408 239h2v8h-2zM418 239h3v8h-3zM408 247h13v3h-13zM408 263h2v3h-2zM418 263h3v3h-3zM408 269h1v1h-1zM408 283h1v1h-1zM408 284h2v1h-2zM408 290h1v1h-1zM413 294h3v1h-3zM408 294h2v2h-2zM432 296h4v3h-4zM408 299h2v1h-2zM418 299h3v1h-3zM408 300h1v1h-1zM419 300h2v1h-2zM408 304h1v1h-1zM419 304h2v1h-2zM408 306h1v1h-1zM420 306h1v1h-1zM331 348h2v1h-2zM332 349h1v1h-1zM331 350h2v1h-2zM531 353h1v1h-1zM348 357h2v3h-2zM510 377h3v3h-3zM448 382h3v1h-3zM448 383h1v1h-1zM381 382h3v3h-3zM448 384h2v1h-2zM515 382h3v3h-3zM449 410h1v1h-1zM241 419h5v1h-5zM576 420h1v1h-1zM512 423h1v1h-1zM514 424h1v1h-1zM248 429h1v1h-1zM250 429h2v1h-2zM241 432h1v1h-1zM243 432h2v1h-2zM246 432h3v1h-3zM250 432h1v1h-1z"/>
</svg>